<?xml version="1.0" encoding="UTF-8"?>
<svg id="Layer_2" data-name="Layer 2" xmlns="http://www.w3.org/2000/svg" viewBox="0 0 346.83 412.81">
  <defs>
    <style>
      .cls-1 {
        fill: #02142c;
      }

      .cls-2 {
        fill: #031022;
      }

      .cls-3 {
        fill: #e6d0ae;
      }

      .cls-4 {
        fill: #020e22;
      }

      .cls-5 {
        fill: #0087c5;
      }

      .cls-6 {
        fill: #011227;
      }

      .cls-7 {
        fill: #021226;
      }

      .cls-8 {
        fill: #152e51;
      }

      .cls-9 {
        fill: #0b1827;
      }

      .cls-10 {
        fill: #00b8f3;
      }

      .cls-11 {
        fill: #fdedcf;
      }

      .cls-12 {
        fill: #011125;
      }

      .cls-13 {
        fill: #1e395e;
      }

      .cls-14 {
        fill: #1c385f;
      }

      .cls-15 {
        fill: #cc635b;
      }

      .cls-16 {
        fill: #fdedd0;
      }

      .cls-17 {
        fill: #f2f2f3;
      }

      .cls-18 {
        fill: #566b83;
      }

      .cls-19 {
        fill: #0086c4;
      }

      .cls-20 {
        fill: #1d385d;
      }

      .cls-21 {
        fill: #143256;
      }

      .cls-22 {
        fill: #00b5f2;
      }

      .cls-23 {
        fill: #1e3a5f;
      }

      .cls-24 {
        fill: #1b375e;
      }

      .cls-25 {
        fill: #05182e;
      }

      .cls-26 {
        fill: #0b1b2e;
      }

      .cls-27 {
        fill: #010d1e;
      }

      .cls-28 {
        fill: #f0f0f1;
      }
    </style>
  </defs>
  <g id="Layer_1-2" data-name="Layer 1">
    <g>
      <path class="cls-2" d="M301.78,158.73l-2.13,2.04c-4.8-.17-9.53-.68-14.18-1.53l-.32,5.21c4.51-2.44,14.87-4.8,15.88,1.58-.39,1.3.14,3.49.59,5.04,5.29-.26,8.67,3.64,8.57,8.62,4.36,3.83,4.73,9.54,3.26,15.09-2.77,8.33-8.36,15.1-15.37,20.66-18.27,25.04-42.41,46.06-71.36,58.64,1.21,16.44,2.8,32.36-.17,48.53-.63,3.41-.86,6.07,2.66,7.97,4.7,6.5,13.41,8.56,19.92,3.61-2.71-4.31-3.54-8.88-2.61-13.54,2-10.07,10.49-16.4,20.48-17.62,10.27-1.25,11.34-7.98,15.11-6.93,5.27,1.46,3.64,12.05.73,20.55,1.13.42,3.51,1.58,3.56,2.56-2.66,14.36-12.75,26.37-27.78,22.65-9.03,12.52-23.71,12.67-37.82,4.42-.62,9.01-3.13,17.17-1.2,25.2l4.19,17.39c3.83,15.88-26.84,31.05-50.07,20.37-6.56-3.02-4.6-11.42-7.28-15.91-4.2-7.02-9.77-12.25-12.81-20.4l-4.61-12.31c-8.27.06-15.06-.66-23.09-2.29l-50.58,37.79c-6.48,4.84-11.96,7.74-19.72,2.81-12.1-7.69-22.2-19.52-27.38-33.13-2.18-5.72-.58-10.27,3.37-14.35,4.83-4.98,10.98-7.29,18.07-5.45l20.07-28.76c-3-18.55-.52-36.99,5.95-55.13-28.3-17.54-49.06-41.82-64.78-69.9-4.29-7.67-11.67-13.46-10.67-23.26-.96-4.84.92-9.97,4.98-12.68.33-5.37,4.41-8.38,9.42-8.28,1.37-3.1,3.77-4.49,6.03-4.86,2.79-.45,5.52-.14,7.37,1.88l8.55,9.36c2.61-3.46,6.44-4.82,9.78-2.81,3.39,3.8,3.46,8.45,3.95,13.6,3.08-9.28,5.67-18.78,6.18-28.53-31.78,4.96-44.01-11.56-54.07-38.73-1.37-3.71,1.02-8.15,4.14-9.17l27.81-9.13c9.69-3.18,19.04-1.35,28.77,2.54-8.94-9.37-23.74-19.78-23.34-31.04.53-14.88,2.3-29.75,7.32-43.49,1.65-4.53,6.32-6.93,10.22-6.62,10.77.86,7.71,19.65,13.76,32.12l24.22,13.5c9.77-6.71,19.86-11.35,31.96-13.27.27-8.14,3.52-18.27,8.27-18.83,3.39-.41,5.14,4.57,9.8,6.77,1.85-6.94,7.27-11.59,13.47-15.14,12.68-7.26,26.98-8.24,40.34-2.16,2.25,1.03,4.89,3.24,3.43,5.85l-5.32,9.47c10.63,2.8,20.37,6.54,31.17,7.3,1.63.11,3.01.43,4.06,1.34.85.74,1.51,2.29.88,3.79l-3.58,8.57c11.31,3.15,21.06,8.43,30.37,15.89l22.47-8.12c4.24-1.53,7.09-3.34,8.63-7.55l7.72-21.04c1.55-4.23,5.93-7.33,9.95-6.81,3.7.48,7.61,3.68,8.43,7.99,2.9,15.13,2.69,30.54.82,45.84-.65,5.34-3.13,9.79-7.33,12.71l-27.4,19.04c12.55-3.59,24.51-3.75,35.3,2.97l25.22,15.7c3.76,2.34,3.49,8.76.77,12.21-7.2,9.12-14.96,17.57-24.44,24.48-5.31,3.87-12.59,4.91-18.56,5.11Z"/>
      <path class="cls-18" d="M301.78,158.73c.23,2.68-.06,4.98-.74,7.3-6.22-3.75-13.69-2.44-18.23,4.29l.86-14.24c6.23,2.27,12.06,2.86,18.12,2.65Z"/>
      <path class="cls-23" d="M162.78,237.5l1.75-2.37c14.59-3.2,24.1-16.02,25.84-30.47,5.06-42.09-47.02-50.28-78.93-44.39l-4.03-1.17c-1.89.47-2.42.22-2.74-1.61l2.4-12.93c-.47-17.46-17.65-21.03-23.2-5.01-4.42,12.74.54,20.72,14.33,17.69,3.97-.49,6.07.46,6.31,2.86l-1.22,2.6c-25.07,10.77-23.62,45.24-3.82,60.86l.62,3.01c-12.06-2.3-23.11-8.72-32.4-17.21-10.5-9.59-15.2-22.22-13.92-36.43l4.97-21.04,9.42-49.63c2.04-10.73,6.06-20.2,11.19-29.74,9.91-18.44,26.56-30.98,47.75-34.64.65,11.42,8.14,16.42,18.74,19.21l-5.01,7.04c-1.05,1.48-.69,3.99,1.53,4.73,5.64,1.87,12.21,5.21,18.53,4.86,10.23-.57,18.73-6.76,27.61-10.97,1.22,1.58,2.28,2.92,3.22,3.38,4.46,2.19,13.54-7.45,18.53-14.59,5.34-7.63,14.49-10.08,23.01-5.59,7.41,3.91,18.11,6.41,22.94,13.77,2.87,6.45,2.82,14.72,6.51,21.35l4.89,12.17c1.48,3.67,4.09,6.39,8.57,8.01l-5.45,4.73c-.59.51-.7,1.84-.38,2.23.8.96,1.54.78,2.86.09,20.74-10.8,31.57-11.14,51.64,1.57l17.26,10.92c4.66,2.95-15.08,22.53-24.37,29.16-4.85,3.46-11.04,3.95-16.9,4.25-11.72.61-22.33-3.69-29.52-11.98-.9,1.82-1.31,2.57-1.4,3.33-.11.98.59,2,1.57,2.79l7.29,5.85-1.37,18.32-4.37-3.33c-2.35-1.79-9.6,1.9-10.98,9.01l-2.42,12.49c-14.93,14.12-30.75,26.21-48.56,36.4-5.21,2.98-9.98,7.47-15.5,9.37-7.34,2.52-23.92,3.21-32.78,1.02Z"/>
      <path class="cls-13" d="M101.13,242.82l.51,2.97c-21.65,36.34-29.65,88.62,26.05,94.6,54.74,5.88,57.2-43.92,46.67-85.92l.79-4.42c-2.78.87-3.63-2.26-1.14-3.69,1.29-3.63,4.79-2.7,7.88-3.22,4.05-.68,8.42-.43,11.92.62l16.07-10.84c19.5-11.47,37.47-24.38,53.86-40.11,1.35-8.43,2.11-19.08,7.84-19.42,2.32,1.66,2.08,5.54,4.33,8.15,6.68-6.9,17.16-16.35,20.37-11.65,1.57,2.29-2.27,4.73-2.79,7.6-.15.8,1.35,3.29,2.42,2.38l5.23-4.41c1.43-1.21,3.56,1.5,4.07,2.65,1.59,3.56-2.62,5.46-3.85,8.41-.35.84.62,3.22,1.82,3.03,2.09-.33,3.34-3.34,5.92-4.87,3.7,8.53-7.51,23.99-13.68,26.99l-5.62.56c-.27,2,.47,3.48.75,5.59-19.12,24.5-43.65,43.79-72.75,55.02-1.75.67-5.66,1.19-4.31,3.83,1.1,2.16,5.5,1.74,8.76,1.03,1.82,18.68,2.44,37.16-2.5,55.11-4.26,15.47-7.3,36.81-1.67,50.93,1.41,3.54,2.41,9.88-.17,13.09-6.91,8.59-18.16,11.53-28.64,11.1l-4.28-11.2c6.56-.53,12.65-1.73,11.8-4.33-.3-.92-1.37-1.8-2.78-1.48-13.94,3.25-26.62,1.28-32.23-11.94l-9.83-23.18c-14.99.59-29.52-1.78-42.68-8.1-.84-.4-1.79-.56-2.38-.35-3.68,1.37,4.16,6.64,13.45,9.87l-37.93,28.02-12.75,10.1c-3.14-16.16-19.64-34.47-35.68-39.18,3.85-6.62,12.07-8.59,18.9-4.19,11.85,7.62,13.56,17.23,15.74,12.86,2.36-4.74-6.99-12.78-15.05-17.19l20.97-29c-4.47-26.55,1.53-51.98,14.68-76.31.39-.72.31-1.87.18-2.34-.18-.62-2.38-1.04-2.91-.34-4.15,5.51-6.65,11.9-9.48,18.18-26.38-16.77-46.64-40.24-61.48-67.33-1.94-3.55-15.82-15.62-9.16-28.9,1.89,1.8,3,4.98,4.49,5.34,5.51-2.54-2.7-8.22-.61-11.7.68-1.13,2.19-2.8,3.9-2.87,1.35,2.58,2.13,4.88,4.17,6.37,1.11.81,3.19-.26,3.2-1.37.04-3.24-4.27-6.45-1.87-9.07,1.4-1.52,4.43-1.88,6.07.17l10.98,13.81c1.78-3.29,2.76-6.53,6.55-7.69,2.5,3.71,3.16,8.96,2.45,13.26s2.13,6.23,2.89,9.25c1.58,6.24,1.1,12.58,3.86,18.52,10.12,21.79,29.09,30.45,50.77,38.96.79.31,1.23,1.46,1,1.87-.66,1.19-4.79.21-5.22,3.02-.19,1.27.7,2.79,2.14,3.33Z"/>
      <path class="cls-16" d="M175.15,250.05c5.98,19.36,7.78,40.05,3.98,59.91-3.53,18.42-17.38,30.98-35.84,32.53-13.92,1.16-27.98-.74-40.36-7.59-31.59-17.49-19.68-63.76-1.8-92.07l1.13-.94c23.14,6.28,46.71,8.81,70.73,7.59l2.16.57Z"/>
      <path class="cls-11" d="M162.78,237.5c-15.81,2.53-51.13-2.41-62.69-10.92-12.9-9.5-19.39-24.57-17.06-40.32,1.85-12.48,9.65-22.06,21.48-26.15-.87-2.73,1.35-3.36,2.9-1,22.39-5.26,46.12-2.95,66.51,7.76,13.65,7.18,19.9,20.88,18.65,35.97-1.39,16.78-11.99,31.82-29.79,34.67Z"/>
      <path class="cls-20" d="M161.9,70.41l-16.51-5.21,5.67-7.92c4.6-6.43-13.65-2.25-18.02-13.24-3.17-7.98-1.23-17.64,2.81-24.96,5.37,2.36,7.87,9.4,13.2,8.32-.16-5.41,1.8-9.34,5.52-12.64,11.81-10.45,28.86-13.4,43.63-6.4l-6.73,13.88,21.37,5.93,14.7,2.46c1.23,2.24-.25,7.73-2.83,8.44-18.55,2.23-18.05,16.42-30.73,23.02l-4.67-5.23c-7.9,6.44-17.15,9.2-27.4,13.55Z"/>
      <path class="cls-16" d="M273.75,95.65c-5.62-11.21-10.26-22.4-12.71-34.58,9.59-6.08,27.4-8.14,31.11-13.4,8.86-12.57,8.68-30.8,16.1-30.37,2.18.13,4.34,1.96,4.84,4.73,2.6,14.48,2.6,29.2.47,43.79-.64,4.42-2.65,7.42-6.04,10.19-7.38,6.04-31.66,23.86-33.77,19.64Z"/>
      <path class="cls-16" d="M91.55,49.87c-10.08,8.94-16.24,19.06-21.29,31.2-9.28-6.54-16.3-13.99-23.22-22.01-1.74-2.02-2.85-5.24-2.73-8.02.62-14.5,2.52-28.61,7.22-42.09.75-2.15,3.42-3.52,4.91-3.49,2.18.04,3.49,2.02,4.01,4.32l4.8,21.18c.54,3.35,2.39,6.12,5.51,7.37l20.81,11.54Z"/>
      <path class="cls-24" d="M26.72,121.19c.3-1.94.62-2.04,1.38-.2-.19,1.97,1.76,2.03,3.07,2.73,9.28,5.01,18.44,3.99,27.61-1.25-.12,3.36-.13,5.85-1.26,8.37-1.66,3.73-20.21,2.87-29.43-2.03-6.05-3.21-10.53-9.43-13.44-15.28l-7.36-14.8c-1.37-2.77-.02-6.15,3.21-7.15l23.65-7.34c11.55-3.58,23.29-1.45,32.97,5.63l-5.2,20.46c-7.96-1.37-13.46-14.4-22.95-15.06-8.36-.58-16.39,1.59-24.6,3.3,2.65,9.23,6.52,16.78,12.36,22.62Z"/>
      <path class="cls-14" d="M247.4,345.97c-8.57,4.17-18.69,1.15-25.06-4.3,1.18-3.94,1.25-6.52,3.39-9.4,4.1,4.63,8.32,7.99,12.89,8.36,6.08.49,11.73-.97,15.82-5.86-4.46-5.44-5.14-12.18-1.79-18.08,7.5-13.2,19.5-6.35,28.58-16.02.64,7.14-1.95,13.73-5.36,19.91,1,1.64,3.37,1.46,5.86.33-1.9,5.96-5.19,12.2-10.92,15.89-3.91,2.52-8.86,1.7-13.02-.24-3.5,3.05-5.84,7.19-10.39,9.4Z"/>
      <path class="cls-3" d="M174.01,246.36l1.14,3.69c-.94,1.21-2.1,2.08-4.23,2.1-19.21.17-37.99-.89-56.52-5.63l-11.14-2.85c-.84-.21-1.3-1.18-1-1.79l5.09-6.08c20.02,6.01,40.42,7.98,61.53,7.67,2.43-.04,4.36.42,5.13,2.89Z"/>
      <path class="cls-8" d="M44.67,366.14c9.03,6.91,20.22,19.58,20.18,30.94-13.95-1.97-28.53-20.99-33.03-35.55,4.96-.95,9.14,1.78,12.85,4.62Z"/>
      <path class="cls-22" d="M55.07,121.81c-4.98,2.97-11.34,4.44-17.21,2.46l-9.75-3.29c-.26-.09-.91-.14-1.38.2.38-2.51-1.4-4.13-2.53-6.28l-6.57-12.53c10.88-.76,22.41.8,31.25,8.45,2.97,2.57,8.11,7.17,6.19,10.99Z"/>
      <path class="cls-5" d="M55.07,121.81c-6.18-11.76-18.27-18.12-32.21-17.36l-5.24-2.07c-.09-.58.52-1.16,1.35-1.27l15.96-2.13c3.95-.53,6.96.83,9.88,3.33l16.12,13.79c-.86,3.29-3.52,4.31-5.86,5.71Z"/>
      <path class="cls-21" d="M180.22,397.2c2.38,2.69,2.36,7.22,3.73,10.21-8.26-.63-12.07-3.45-12.18-12.22,2.09.37,5.77.48,8.45,2.02Z"/>
      <path class="cls-12" d="M205.19,168.19c-5.58,6.9-11.12-2.02-23.78.13-6.29-10.84-1.11-29.89,11.07-31.52,5.9-.79,11.35,2.13,14.27,7.41,4.2,7.61,3.86,17.28-1.56,23.98Z"/>
      <path class="cls-6" d="M107.42,159.11l-2.9,1c-7.18-2.48-16.85,1.59-20.29-2.35-5.26-6.05-4.27-14.67-1.19-21.48,2.67-5.92,7.15-9.14,13.41-8.71,5.22.36,9.72,3.73,11.52,9.54,3.79,12.24-3.64,18.85-.56,22Z"/>
      <path class="cls-27" d="M316.36,142.59c-12.04,9.71-32.29,4.98-42.78-10.25-1.06-1.54-2.76-2.12-3.51-4.84,16.65-2.51,27.69-17.24,42.27-10.76l18.93,8.42c-4.47,6.74-8.95,12.64-14.9,17.43Z"/>
      <path class="cls-7" d="M215.13,115.79c-4.73-7.53-13.69-9.71-22.24-7.46-.87.23-1.78-2.12-1.41-2.72.45-.72.99-2.03,2.66-2.44,15.78-3.82,28.4,11.14,24.15,13.71-1.02.62-2.3.26-3.15-1.09Z"/>
      <path class="cls-7" d="M110.62,98.53c-.98,4.62-10.57-4.73-20.57,4.67-.98.92-2.2,1.13-3.15.47-4.04-2.82,9.32-13.89,21.62-8.31,1.5.68,2.31,2.23,2.11,3.17Z"/>
      <path class="cls-1" d="M280.4,203.96c-1.45.57-2.1-1.04-2.04-1.48.34-2.86,3.75-4.21,4.11-8.08.43-4.53-4.79-7.03-3.57-8.86.6-.91,2.36-.97,3.59-.14,3.51,2.35,4.61,5.8,4,9.95-.41,2.79-2.31,7.12-6.09,8.62Z"/>
      <path class="cls-4" d="M32.36,168.38c-8.68,5.8-.65,12.17-3.36,14.17-.9.66-2.49.2-3.45-1.44-3.17-5.4-.36-13.43,5.17-16.47,1.15-.63,2.94.15,3.31.86.4.78-.47,2.07-1.67,2.87Z"/>
      <path class="cls-25" d="M157.87,193.65c4.65,2.26-.19,26.08-16.05,30.03-7.2,1.79-13.98.1-18.94-4.6-6.62-6.27-8.67-14.61-9.76-23.49-.16-1.29-2.28-2.99-.69-4.54s2.98-.49,4.99.61c19.64,10.8,38.5,1.04,40.46,1.99Z"/>
      <path class="cls-9" d="M114.78,181.58c-2.62,3.55-7.13,1-9.37-1.45-2.04-2.22-3.57-6.5-.59-9.43,2.25-2.21,6.07,0,8.07,1.83,1.86,1.7,4.19,5.94,1.89,9.06Z"/>
      <path class="cls-26" d="M168.74,177.59c1.73,3.67-1.15,6.9-3.21,8.56-2.22,1.79-6.71,3.23-8.86.19-2.3-3.25.29-7.1,2.91-9.07,2.28-1.72,7.29-3.67,9.16.32Z"/>
      <path class="cls-17" d="M190.94,142.47c3.56-1.23,6.58,1.21,7.07,4.14s-1.07,5.93-4.06,6.85c-2.66.81-5.8-.68-6.68-3.36-.98-2.99-.17-6.3,3.66-7.63Z"/>
      <path class="cls-28" d="M97.01,142.75c-2.14,1.82-5.05,1.62-6.6.28-1.78-1.54-2.28-4.31-1.23-6.62s3.02-3.47,5.22-3.53c1.99-.05,3.8,1.09,4.78,3.4.8,1.87.29,4.37-2.17,6.47Z"/>
      <path class="cls-10" d="M324.93,129.9c-3.56,4.55-6.99,9.76-12.57,12.72-9.2,4.88-26.51,3.06-31.82-6.76-.44-.69-.77-1.83-.28-2.08,15.28-7.7,26.63-12.02,43.74-6.11l.93,2.24Z"/>
      <path class="cls-19" d="M324.93,129.9l-12.36-2.59c-7.67-1.46-14.8.43-21.77,3.75l-10.26,4.79c-2.06-1.29-3.39-3.13-3.89-5.6l12.64-5.67c4.17-1.87,8.75-5.21,13.55-5.17,8.68.06,16.4,4.32,24.33,7.35-.2,2.23-1.63,2.37-2.24,3.15Z"/>
      <path class="cls-15" d="M152.14,208.94c-2.06,5.61-6.32,8.71-10.84,10.41-5.11,1.92-12.81.8-15.7-3.76,3.36-8.94,15.27-11.17,26.54-6.64Z"/>
    </g>
  </g>
</svg>