<?xml version="1.0" encoding="UTF-8"?>
<svg id="Layer_2" data-name="Layer 2" xmlns="http://www.w3.org/2000/svg" viewBox="0 0 346.94 411.73">
  <defs>
    <style>
      .cls-1 {
        fill: #6a9b61;
      }

      .cls-2 {
        fill: #699e5f;
      }

      .cls-3 {
        fill: #eeeeef;
      }

      .cls-4 {
        fill: #fdeccf;
      }

      .cls-5 {
        fill: #0087c7;
      }

      .cls-6 {
        fill: #0b1625;
      }

      .cls-7 {
        fill: #1b365b;
      }

      .cls-8 {
        fill: #011226;
      }

      .cls-9 {
        fill: #5d8757;
      }

      .cls-10 {
        fill: #6ca265;
      }

      .cls-11 {
        fill: #2f583f;
      }

      .cls-12 {
        fill: #122c29;
      }

      .cls-13 {
        fill: #2a593e;
      }

      .cls-14 {
        fill: #345d41;
      }

      .cls-15 {
        fill: #0084c2;
      }

      .cls-16 {
        fill: #011125;
      }

      .cls-17 {
        fill: #1e395e;
      }

      .cls-18 {
        fill: #6e9d66;
      }

      .cls-19 {
        fill: #f2f2f2;
      }

      .cls-20 {
        fill: #1c385f;
      }

      .cls-21 {
        fill: #518057;
      }

      .cls-22 {
        fill: #fdedd0;
      }

      .cls-23 {
        fill: #649a5f;
      }

      .cls-24 {
        fill: #699a62;
      }

      .cls-25 {
        fill: #1c365b;
      }

      .cls-26 {
        fill: #00b3f3;
      }

      .cls-27 {
        fill: #0b1828;
      }

      .cls-28 {
        fill: #2d563f;
      }

      .cls-29 {
        fill: #1d385d;
      }

      .cls-30 {
        fill: #345e42;
      }

      .cls-31 {
        fill: #19365c;
      }

      .cls-32 {
        fill: #70a166;
      }

      .cls-33 {
        fill: #fdedd1;
      }

      .cls-34 {
        fill: #6ca163;
      }

      .cls-35 {
        fill: #1c375d;
      }

      .cls-36 {
        fill: #1e395f;
      }

      .cls-37 {
        fill: #102a28;
      }

      .cls-38 {
        fill: #030e1f;
      }

      .cls-39 {
        fill: #00b5f2;
      }

      .cls-40 {
        fill: #e9d3b1;
      }

      .cls-41 {
        fill: #0d131e;
      }

      .cls-42 {
        fill: #6da263;
      }

      .cls-43 {
        fill: #76a368;
      }

      .cls-44 {
        fill: #1a355c;
      }

      .cls-45 {
        fill: #021328;
      }

      .cls-46 {
        fill: #588a56;
      }

      .cls-47 {
        fill: #fdeccd;
      }
    </style>
  </defs>
  <g id="Layer_1-2" data-name="Layer 1">
    <g>
      <path class="cls-38" d="M278.54,316.24c9.68-9.43,18.9-4.53,25.88-11.06,1.67-1.56,2.87-2.72,4.63-2.15,5.59,1.8,2.95,11.65.04,20.42,1.07.37,3.32,1.38,3.65,2.52-2.67,14.77-14.07,27.61-29.17,22.16-7.93,11.89-22.83,13.35-34.64,5.05l-5.45,34.11c3.99,6.78,3.94,18.2.98,21.21-4.44,4.51-33.02,3.25-46.5,2.32-5.09-.35-6.68-3.69-7.32-8.29l-5.35-38.54-21.33-.25-6.12,41.55c-.48,3.28-3.8,5.07-6.82,5.34-13.5,1.21-42.93,2.28-47.38-2.15-3.17-3.15-3.29-14.99,1.24-21.14l-8.09-47.6-3.08-23.86c-11.25-8.81-19.5-19.65-17.7-34.34,1.45-11.85,6.13-22.42,12.74-32.17,3.95-5.83,7.51-11.29,13.73-16.01-21.54-6.71-39.57-19.7-40.76-43.33-.79-15.85.69-31.13,1.39-47.77-13.41,4.24-27.34,3.15-40.07-2.37-9.29-8.95-16.34-19.23-22.71-30.24-.92-4.32.13-8.65,4.22-10.47l22.74-10.13c6.6-2.94,13.51-5,20.79-4.97,8.69.04,15.34,4.95,24.53,6.54-9.41-11.08-27.63-25.35-27.03-37.18.82-16.14,3.48-32.33,9.61-47.2C56.98,1.86,61.48-.33,65.44.04c10.34.95,7.36,20.5,12.76,34.75l20.28,12.31c8.95-5.24,18.15-8.92,28.65-11.23-.48-11.75,4.79-22.79,10.04-18.22,2.7,2.35,4.69,4.37,8.39,6.3.87-6.27,4.91-10.78,9.96-14.53,12.49-9.26,28.22-12.09,42.37-5.46,2.49,1.17,3.29,3.57,2.31,6.07l-2.82,7.22c10.69,2.52,20.75,5.21,31.58,6.52,1.69.21,2.57,2.67,2.1,3.98l-3.39,9.28c9.12,2.66,16.97,5.02,24.82,10.64,5.62-4.86,14.09-7.34,18.96-13.12,6.53-12.47,2.06-32.16,13.1-34.02,3.83-.65,8.35,1.61,10.01,5.85,5.62,14.39,13.04,46.64,6.64,56.73s-15,17.43-23.21,26.92c8.69-1.41,14.94-5.61,22.92-5.7,7.55-.08,14.54,2.17,21.26,5.29l19.74,9.16c10.14,4.7,3.09,15.51-4.46,25.65-4.69,5.08-8.06,12.89-14.68,16.11-11.29,5.49-24.78,5.12-36.68,1.86l1.57,41.29c1.01,26.63-15.62,41.88-39.77,49.56,17.67,16.6,33.35,45.7,22.71,67.01-3.36,6.72-8.98,11.59-15.03,15.95l-2.45,17.28c1.65,2.66,3.37,5.21,5.79,7.06,4.72,3.62,10.76,3.95,15.59.07-4.83-8.51-2.51-17.99,4.06-24.39Z"/>
      <path class="cls-36" d="M216.67,235.52l.9-2.66c24.52-17.6,17.87-51.59-12.84-58.18-24.86-5.34-72.44-6.53-78.3,25.52-2.3,12.57.88,25.38,12.12,32.47l.81,2.82c-1.21,1.86-2.96,1.1-4.79.79-15-2.57-29.44-5.46-43.08-11.92-15.14-7.16-25.44-20.59-25.54-37.74-.13-22.55,1.48-44.41,4.1-66.82,1.69-14.43,4.83-27.68,10.01-41.01,8.59-22.14,23.72-32.85,47.43-38.39,1.42,16.56,14.57,19.21,30.23,22.78-2.36,4.25-4.4,6.33-4.7,10.63,20.97,9.21,33.73,5.84,49.66-9.95,1.04,1.71,4.27,4.43,6.16,3.03,12.87-9.54,13.39-25.97,17.21-25.18,40.81,8.43,49.69,40.93,53.64,79.23,2.24,21.68,2.89,42.85,3.25,64.73s-14.55,36.29-35.09,42.92c-10.44,3.37-20.48,6.91-31.18,6.91Z"/>
      <path class="cls-29" d="M128.1,326.63c2.46,1.17,3.41,3.71,1.69,5.98l2.68.67c12.2,17.25,38.33,17.82,57.48,15.02,10.75-1.58,21.67-4.36,27.38-14.38l2.86-1.24c-2.41-2.11-.89-4.2,1.83-2.46-.05.88-.04,1.71.65,2.55.51-2.4.82-3.73,1.95-5.64,9.02-.39,16.94-3.66,25.59-7.9-.39,10.02-2.62,18.78-4.41,28.16l-7.44,39.06-23.66.71c-4.88.15-6.6,3.79-6.89,8.27l-.69,10.97c-4.26-.12-7.77-.15-11.8-1.35l-5.46-41.6,12.3-3.67c1.22-.36,1.99-1.81,1.89-2.63-.07-.55-1.3-1.86-2.12-1.59-18.09,5.99-36.76,5.58-54.63-.65-1.31,1.35-1.44,2.36-1.2,3.05.2.57,1.13,1.15,2.02,1.45l11.32,3.74-6.23,42.13-11.22,1.18-1.51-13.56c-.45-4.09-4.82-6.11-8.67-6.13l-22.2-.14-7.35-42.29-3.34-24.74c8.54,4.38,16.91,6.83,26.06,7.95,1.56.19,2.27.1,3.1-.91Z"/>
      <path class="cls-4" d="M216.67,235.52l-8.6,2.35c-5.51,1.19-7.82.53-6.92-1.97-2.92-2.6-32.34-2.02-45.15-1.51-2.87.11-7.54,6.25-16.65,1.11-12.73-7.18-17.21-19.57-15.07-34.53,1.98-13.78,11.13-23,24.41-26.86,20.35-5.92,42.17-5.93,62.43.25,15.35,4.68,23.74,17.6,22.91,33.39-.64,12.19-6.34,22.88-17.37,27.76Z"/>
      <path class="cls-17" d="M202.7,57.73c-6.59,8.39-15.93,15.1-26.89,17.01-6.04,1.05-12.92-2.16-18.04-4.03,2.87-4.14,5.4-6.49,5.83-11.39-16.07-2.2-31.9-4.26-31.97-20.49-.03-6.24-.82-12.8,3.63-18.07,3.77,4.04,7.35,7.44,13.47,9.97.13-8.78,4.49-14.65,11.23-18.92,11-6.97,23.81-9.16,36.26-3.82l-4.69,13.2c8.56,1.02,15.93,3.08,23.83,5.2l10.71,1.48c-.46,7.51-8.2,15.04-10.09,21.5-1.51,5.16-3.01,9.57-8.18,12.94l-5.09-4.58Z"/>
      <path class="cls-25" d="M215.33,289.35c0-1.79,2.93-3.37,4.73-3.55l13.43-1.29c2.64-4.96,7.02-7.25,11.5-10.72-2.19-3-4.4-1.43-7.7.07l7.78-15.95c-3.76-3.11-8.32-7.1-12.92-7.53-3.33-.31-4.85.24-7.47-2.65s-10.82-2.58-11.86-4.65c-.34-.68,1-2.07,1.95-1.41,1.87,1.32,3.06-.52,4.36-.74,8.29-1.41,15.8-3.08,23.72-5.65,11.07,7.33,21.66,25.51,25.32,38.2,3.69,12.8.86,26.24-9.6,34.75-15.1,12.28-43.22,22.84-51.52,3.45,4.31-1.61,9.14.21,9.39-2.61.05-.53-.38-1.63-1.37-1.66l-8.56-.22c-1.53-5.81-.25-12.35,5.38-15.2,2.32,2.7,4.97,4.92,8.69,3.86-.3-3.63-3.81-4.29-5.22-6.51Z"/>
      <path class="cls-35" d="M131.24,240.92c1.23,1.96.36,3.77-2.6,5.43-7.82,3.24-14.85,7.28-21.08,12.12l4.13,7.95-.92,2.08c.69,1.23,1.28,2.65.69,4.51-2.1-2.33-5.71.6-4.75,1.39,4.27,3.53,8.97,5.33,11.18,10.4,9.6-.56,19.32,1.66,17.2,5.19-.73,1.21-4.42,1.25-5.94,3.24-.59.77.1,2.92,1.11,2.92,3.04-.02,5.44-2,8.19-3.45,4.67,3.16,5.87,9.49,4.89,14.77l-7.31.1c-1.42.02-2.25.66-2.42,1.54-.5,2.71,4.01,2.16,7.98,4.24-2.28,5.16-6.61,7.27-11.53,8.45-15.81,3.79-42.9-9.94-48.45-28.62-5.47-18.42,9.67-45.17,25.55-57.84l24.08,5.59Z"/>
      <path class="cls-34" d="M198.02,238.97l1.32.51c.26,16.66-.28,34.19-1.61,51.26-.09,1.17-.95,2.07-1.84,2.79-.3,4.66-.51,9.37-.64,14.15,3.26,1.42-.11,9.78-3.49,10.46-10.47-1.98-21.08-2.53-31.82-1.64-2.98-.43-4.01-2.95-4.15-5.73-.72-23.25-1.65-46.67-2.75-69.87l1.92-2.11c14.34-.54,28.64-.69,43.08.19Z"/>
      <path class="cls-33" d="M94.58,50c-10.89,9.35-16.59,21.33-21.69,34.1-7.73-7.37-13.89-14.47-19.78-22.26-6.85-9.05.78-39.82,6.08-53.65.81-2.1,2.82-3.44,4.42-3.6,8.61-.88,4.21,28.96,13.2,34.49l17.76,10.92Z"/>
      <path class="cls-22" d="M277.24,84.04c-4.02-13.15-10.24-24.54-21.01-33.32l18.73-12.97c6.38-11.15,3.96-31.88,10.58-32.85,7.82-1.15,13.13,34.67,13.54,48.9-.16,3.3-.85,6.01-2.65,8.55l-19.19,21.69Z"/>
      <path class="cls-7" d="M24.68,127.27c8.38,9.58,29.72,11.21,39.12.34,1.42,2.39,1.01,5.87.04,7.96-.71,1.52-3.05,2.52-5.49,3.6-10.37,2.96-21.34,1.46-31.51-1.96-7.75-6.88-13.17-14.86-18.68-23.46-2.2-2.76-4.36-5.7-3.64-9.62l26.23-11.67c13-5.79,26.78-4.58,39.15,3.45-1.86,6.99-2.72,13.63-3.73,21.2-12.94-3.31-18.05-15.66-30.14-13.62-7.45,1.26-14.45,3.29-21.95,5.54,1.99,7.02,5.89,12.84,10.61,18.24Z"/>
      <path class="cls-44" d="M285.26,129.44c1.63-1.99,2.57,1.18,3.45,1.68,8.78,5,21.57,5.57,29.57-.61,7.23-5.58,12.53-12.13,15.24-21.13l-17.14-5.06c-15.88-4.69-20.11,8.65-32.64,11.66l-3.36-21.4c20.9-9.17,28.67-6.06,47.86,2.8l12.38,5.72c1.82.84,2.61,3.13,1.6,5.07-4.98,9.58-11.42,18.26-18.63,26.11-3.68,4-7.6,4.84-12.68,5.63-8.57,1.34-16.72,1.37-24.82-2.5-.76-2.2-1.2-5.29-.82-7.97Z"/>
      <path class="cls-12" d="M208.07,237.87l-6.37,1.39c.17,3.05,2.33,2.56,3.78,3.06-.33,1.76-1.05,3.32-2.17,4.68l1.56,1.9c-1.88,6.2-3.12,12.49-3.71,18.86,3.38,1.44,1.33,7.87-1.29,9.86,3.1.04,2.19,13.21,1.57,14.4-1.4.32-2.16,1.6-2.29,3.83l1.32.16c-.67,2.99-.5,5.51.51,7.56-.64,4.15,2.13,7.99,2.13,12.14-1.39,1.16-1.02,2.24,1.09,3.23l.13,1.45c-1.71,0-3.33.8-4.39,2.59l-1.53,1.69c-13.2-4.82-26.16-5.35-38.86-1.61l-2.55-1.29c-.97-1.59-2.44-2.45-3.96-3.14l-1.83-.82c-4.25,1.83-6.35,1.51-6.29-.98l3.12-7.29c2.32,1.76,1.2-6.21.63-8.36-.13-.49-.47-.7-.97-.75-.22-1.34-1.61-3.27-1.28-4.68l-2.33-7.41c1.39-3.26,3.08-7.2,5.26-2.71h1.36c-1.07-3.65-1.88-8.07-2.41-13.27l2.12-1.73-.6-16,1.94-1.49-.48-4.39c-3.82-1.11-3.49-3.1-.33-4.88-1.13-.31-2.18-.71-2.31-2.22,2.28-.54,4.51-1.37,6.26-2.87l.83,20.9,2,50.92c.06,1.43.54,3.02,1.2,3.57,1.89,1.58,20.36-2.19,33.69,2.31l2.58-8.8c.17-4.76.38-9.48.64-14.15-.06-6.15.74-12.26,1-18.87l1.15-35.69c.23-2.04,1.43-3,3.14-3.06,1.95,1.74,4.13,2.33,6.92,1.97Z"/>
      <path class="cls-20" d="M273.11,352.28c-7.15,3.5-16.48,2.41-22.07-2.95-1.39-2.94.3-7.46,1.53-10.04,6.24,8.99,17.14,10.62,25.16,4.08,1.04-.85,1.39-2.18,1.39-3.23,0-.84-1.64-1.81-2.05-3.07-2.8-8.66,2.48-20.02,11.86-22.25,7-1.66,13.51-2.03,19.07-7.43-.16,7.65-1.9,13.77-5.79,20.27,1.89,1.38,3.35,1.2,5.44,1.71-2.39,6.11-5.91,11.59-11.38,14.5-4.37,2.33-9.75.91-14.43-.46-2.78,3-4.51,6.82-8.73,8.88Z"/>
      <path class="cls-40" d="M199.96,322.98c4.23.98,8.21,3.66,13.06,1.6,2.6.7,6.3,2.9,9.5,2.29.55,1.81-.25,2.41-.51,3.33-1.07.41-1.42,1.52-1.83,2.46l-2.21,2.22c-13.75-2.47-27.69-4.68-41.79-6.63-9.88.92-19.6,2.61-29.15,5.08-5.11-.73-10.16-.37-15.15,1.09l-2.09-1.82c-1.02-1.98-1.97-3.77-1.69-5.98,3.04.77,6.93-2.56,10.14-2.44,2.61.1,4.47,2.19,8.44.92l10.34-3.33c8.51-2.74,17.29-4.77,26.6-2.6l16.35,3.81Z"/>
      <path class="cls-39" d="M20.24,111.38c7.45.3,15.05.98,22.78,2.04,6.19,3.2,12.07,6.93,17.65,11.18l.17,2.4c-1.83,1.51-3.51,3.69-6.23,4.42-7.62,2.05-17.12,2.3-23.99-2.13-5.53-3.56-8.04-10.06-12.14-14.87-.87-1.02-.76-2.05.12-2.45.35-.16.7-.4,1.64-.6Z"/>
      <path class="cls-26" d="M327.84,116.11c-9.51,13.91-9.38,14.97-24.8,16.63-6.43.69-11.24-1.89-15.58-5.95l.64-2.67c7.69-6.39,17.85-11.88,27.89-12.3,3.78-.16,14.08-.44,11.85,4.28Z"/>
      <path class="cls-42" d="M223.92,280.66c-.52.06-1.15.21-1.56.3-3.37.8-5.99-.51-7.84-3.94-3.92-2.97-8.04-2.37-12.38,1.79l-2.27-1.19,1.29-9.86c-.1-2.34-.15-6.08,1.1-8.06.45-.71,10.76-7.59,11.44-7.72,1.56-.28,12.89,5.62,14.76,7.34-.32,3.24-.14,5.49,2.39,7.78.13.71-4.7,11.57-5.55,13.24-.14.27-.7.32-1.38.31Z"/>
      <path class="cls-35" d="M137.19,406.54c-10.22.57-19.62.52-29.74-.55-2.45-4.87-1.98-10.57.75-15.59l26.94.89c1.53,4.92,1.53,9.08,2.05,15.26Z"/>
      <path class="cls-31" d="M240.96,405.98l-29.85.83.79-11.27c.19-2.75,2.43-4.19,4.96-4.28l23.07-.79c2.62,4.66,3.04,10.21,1.02,15.51Z"/>
      <path class="cls-37" d="M147.29,241.98l.09,1.36c-3.97,1.38-7.95,2.78-11.95,4.2,1.26,7.1,3.26,14.13,6.02,21.09l1.67,8.15c2.92-.14,2.95,3.16.18,3.92-1.35,2.55-3.36,1.84-3.29-1.03-1.79-1.36-3.85-4.38-1.63-6.12l-2.19-.04c-2.09-6.11-4.82-11.69-8.21-16.73-3.15.15-2.76-.89,1.16-3.12-.5-.71-1.03-1.42-1.31-1.32-5.06,1.75-11.02,4.48-15.03,7.87,1.34,2.64,1.66,4.72.94,6.25l-2.97,2.06-5.65-10.04c6.19-9.6,20.38-8.96,26.12-17.54l16.06,1.05Z"/>
      <path class="cls-11" d="M229.36,280.65c-1.16,1.35-4.29.5-5.45.01.44-4.35,4.2-8.34,5.27-12.93-2.58-1.6-3.44-4.94-2.31-7.81l-12.67-6.31c-3.82,5.42-11.6,3.11-13.04,14.15-2.14-6.84.49-14.42,2.15-20.76l1.32-1.99c6.67,1.3,30.04,11.03,32.2,15.47-2.28,6.25-4.99,12.41-8.14,18.46l.67,1.71Z"/>
      <path class="cls-15" d="M327.84,116.11c1.38-3.1-13.91-2.84-19.78-1.14-7.76,2.26-13.55,7.96-20.59,11.82-1.24-1.16-3.52-1.18-3.39-3.65.1-1.94.98-2.19,2.86-3.41l13.92-9.01c3.42-2.21,6.95-3.93,11.1-2.96l17.85,4.17c-.03,1.81-1.03,2.82-1.95,4.16Z"/>
      <path class="cls-5" d="M60.84,127.01c-7.14-3.87-15.33-12.5-23.09-12.68l-15.62-.37c-.6-.01-.69-1.26-.71-1.62s-1.21-.61-1.17-.96c6.4-1.36,15.21-5.9,21.93-3.4l23.22,13.66c-.81,3.2-2.61,3.76-4.55,5.36Z"/>
      <path class="cls-23" d="M138.37,273.54c-1.06,2.81-3.45,5.73-5.39,8.09l-5.93-.96-1.77-.67c-2.78-4.59-7.35-12.74-3.52-17.19-1.85-4.3,2.9-7.38,6.21-6.04.67-.38,2.77-1.3,3.17-.35l7.23,17.12Z"/>
      <path class="cls-11" d="M222.36,280.96l-6.89,1.42c-6.16,3.56-10.43,9.6-13.58,15.4-.85-.78-1.76-1.42-2.73-1.93l.75-10.25c.22-3.03-.38-5.37-.04-7.98,4.52-1.51,6.59-6.63,13.21-3.77s4.56,7.72,9.28,7.11Z"/>
      <path class="cls-24" d="M205.48,242.32c4.5,1.55,8.76,3.35,13.17,5.72,7.04,3.79,14.32,6.17,21.42,11.06l-10.71,21.54c-.66.53-2.88-.12-2.49-.99l8.39-18.56c-6.41-5.14-13.36-7.43-20.27-10.5-4.09-1.82-7.85-3.82-11.68-3.59-.58-1.07-1.08-3.14-.54-3.87.51-.68,2.15-.98,2.7-.81Z"/>
      <path class="cls-28" d="M151.8,253.14c-2.94.76-3.47-4.86-1.74-4.08,1.01.46.51,1.9-.76,1.6.22,4.14-.15,10.1-5.03,6.43,2.46,8.64,4.44,17.38,5.96,26.21l-.85,2.34c-.82-.03-2.19-.14-2.7.23-1.99,1.45.61,6.26-.24,9.88l-4.29-7.11-.46-2.79c1.22-1.4,1.76-3.12,1.61-5.16l-.18-3.92c-1.57-8.35-3.95-16.48-7.15-24.38-3.99-5.08,10.23-9.58,13.78-9.53.42,0,.83.44,1.24,1l-.4,3.35c1.54,1.71,1.7,3.71,1.22,5.92Z"/>
      <path class="cls-13" d="M129.14,253.65c-.39.86-2,1.68-1.16,3.12l-5.28,3.04c2.75,3.2-.41,5.53-1.07,7.48,1.01,4.06,4.78,9.36,5.42,13.39l-3.17.02c-3.02-2.98-11.29-17.01-11.13-20.38.06-1.35,14.2-9.33,16.38-6.66Z"/>
      <path class="cls-10" d="M129.14,253.65c-4.86,1.77-9.95,3.45-14.72,7.05,2.6,7.3,6.22,13.59,9.46,19.99-1.47.01-2.83-.61-3.7-2.23l-6.45-12.02-3.87-7.6,19.78-9.24c.59,1.8,0,2.92-.51,4.05Z"/>
      <path class="cls-43" d="M148.68,241.65c.37-.04,1.21-.17,1.78.1.62.3.62,1.39.53,2.12-4.46,1.44-9.26,2.65-13.71,5.35-3.16,1.91,7.53,15.35,5.84,27.57l-3.3-8.99-6.92-21.6,14.39-4.2,1.39-.33Z"/>
      <path class="cls-28" d="M140.01,279.66c2.1,1.48,1.93,3.63-.04,5.14-2.27-1.3-4.44-2.76-6.99-3.17-.74-3.75,1.61-6.86,5.39-8.09.79,1.88,2.7,3.59,1.63,6.12Z"/>
      <path class="cls-9" d="M153.05,318.63l-10.78,3.08c.31-2.36,2.04-3.43,2.66-4.89,4.15,2.45,10.02-4.14,8.12,1.8Z"/>
      <path class="cls-2" d="M143.29,280.7c.36.85,3.13,1.99,1.8,3.82l-2.95,4.12-2.18-3.83c-.85-1.5-.6-3.64.04-5.14l3.29,1.03Z"/>
      <path class="cls-46" d="M203.12,315.72l3.92,4.52c-1.28.69-2.06.15-2.69.16l-5.33-1.77c-1.52-.5-1.92-1.13-1.73-2.39.08-.54.57-1.64,1.62-1.42l4.21.9Z"/>
      <path class="cls-18" d="M201.89,297.78l-.89,5.79c-.41.09-1.13.11-1.47-.08s-.8-.94-.74-1.84l.38-5.81c.57-.83.78-1.73,1.18-3.33,1.82,1.31,1.84,3.34,1.55,5.26Z"/>
      <path class="cls-21" d="M148.05,309.54c1.21-2.83.17-6.04-.33-9.11-.08-.59.56-.94.84-.77.38.23.83.99.9,1.52l1.31,10.18c.09.68-1.8,1.46-2.24,1.16-.89-.62-.69-2.03-.47-2.98Z"/>
      <path class="cls-8" d="M138.44,169.57c-2.25,5.68-7.32,8.58-12.02,9.07-5.36.56-10.61-1.87-13.52-6.83-4.1-6.98-3.46-16.33,1.33-22.73,3.04-4.06,7.45-5.96,12.28-5.66,9.86.62,16.76,13.96,11.93,26.15Z"/>
      <path class="cls-16" d="M242.36,174.64c-5.22,5.72-14.48,5.33-19.44.2-8.79-9.09-5-27.78,5.05-30.94,5.45-1.72,10.58-.37,14.26,3.69,6.64,7.33,7.29,19.2.13,27.05Z"/>
      <path class="cls-45" d="M130.12,114.79c-14.21-4.95-20.72,6.94-23.12,5.43-.9-.57-1.38-2.01-.6-3.12,9.36-13.29,28.48-8.76,26.68-3.86-.28.77-1.6,2.03-2.96,1.55Z"/>
      <path class="cls-45" d="M249.06,119.42c-3.2,2.57-7.67-9.22-21.64-5.16-1.64.48-2.39.24-3.05-.45-4.67-4.82,15.65-10.42,25.3,3.24.79,1.12-.13,1.99-.61,2.37Z"/>
      <path class="cls-47" d="M220.18,332.67c-3,6.85-9.43,12.44-17.39,14.81-23.31,6.97-61.85,6.63-73-14.88,3.14.38,6.05-1.72,9.39-1.75,3.03-.02,6.07,1.02,9.48.23l13.74-3.16c9.88-2.27,19.05-2.3,28.84.41,6.37,1.77,12.67,2.19,19.06,3.01,3.29.42,6.66,2.98,9.89,1.32Z"/>
      <path class="cls-41" d="M182.89,217.5c12.92-1.5,14.11-10.24,17.59-7.89,1.01.69,1.55,2.47.21,3.85-17.84,18.45-45.27,3.75-44.27-2.25.2-1.19,1.45-1.99,2.28-2.02,2.23-.09,6.74,10.33,24.19,8.31Z"/>
      <path class="cls-6" d="M213.18,190.35c-.83,6.16-7.01,10.51-12.43,7.57-1.83-6.04,3.11-11.69,9.03-11.85,1.85.46,3.21,1.61,3.4,4.28Z"/>
      <path class="cls-27" d="M158.27,197.73c-2.13,2.86-6.73.7-8.71-1.03-2.3-2.01-4.37-6.38-1.7-9.18,2.39-2.5,6.56-.59,8.62,1.24,1.94,1.73,4.19,5.77,1.8,8.97Z"/>
      <path class="cls-30" d="M183.65,308.39c.22-3.09,4.37-5.57,5.3-7.64,3.68-8.18,3.31-17.19,3.04-26.14l-.63-21.28c-2.44-1.67-4.76-4.44-4.99-7.51l-19.61-.47c-.2,3.22-2.01,5.33-4.67,6.91l.71,34.05c.03,1.27-.71,2.1-1.38,2.2-1.1.17-1.93-.88-1.97-2.34l-1.25-43.71c12.97-.86,24.41-1.13,36.18.6,1.45,5.54.58,10.6,0,15.84-1.16,10.57.11,21.02-.22,31.68-.18,5.86-1.86,11.1-1.06,17,.37,2.76-2.33,5.64-5.04,5.21-8.84-1.4-17.02-1.13-26.1-1.17-1.45-3.64-.97-7.62-.4-10.93,1.55-.12,2.63-.34,3.72-.14.7.13.42,1.64.02,2.61l4.13,5.12,14.22.09Z"/>
      <path class="cls-14" d="M186.96,271.16c2.71,5.16,2.98,10.02.26,15.09-1.73,3.22-6.99,7.27-11.38,5.96-7.19-2.13-11.48-7.66-11.41-14.08s3.8-12.92,10.73-14.25c5.18-1,9.41,2.73,11.8,7.28Z"/>
      <path class="cls-30" d="M195.24,307.67l-.28-12.14c0-1,.43-1.69.91-2.01.05,4.73.71,9.55-.64,14.15Z"/>
      <path class="cls-1" d="M151.8,253.14l.74,19.85-2.27.09c-2.58.1,5.74,19.62,3.29,31.68l-4.18-19.11c-2.39-10.92-5.08-21.62-8.85-33.47,3.14-.35,4.7,2.65,6.19,5.13,1.03-3.44.2-5.77.35-8.22l4.14-.85c-.55,2.41.54,3.47.6,4.91Z"/>
      <path class="cls-19" d="M126.51,159.8c-2.68,1.85-5.46.32-6.71-1.39-1.62-2.23-1.77-4.91.06-7.25,1.15-1.47,3.93-2.95,6.39-1.67,2,1.04,3.21,3.04,3.37,4.91s-.97,3.93-3.11,5.41Z"/>
      <path class="cls-3" d="M229.64,160.53c-3.57-.48-4.83-3.76-4.7-6.25s1.99-5.11,5.15-5.33c3.37-.24,5.66,2.59,5.88,5.39.24,3.07-2.32,6.73-6.33,6.19Z"/>
      <path class="cls-32" d="M173.66,284.97l-2.23-1.15c-.57-.29-.33-2.1.19-1.97l2.88.8c1.07.3.99-.7,1.01-1.49.08-3.06-3.58-2.69-4.34-5.25-.68-2.29,2.91-6.23,6.37-6.82l-.68,5.27c-.72.07-1.51-.34-1.84-.49-.79-.35-1.4.44-1.13,1.32.65,2.14,6.95,1,8.54,4.79,1.06,2.53-.23,4.61-2.07,5.51-2.23,1.09-3.97.89-6.7-.52Z"/>
    </g>
  </g>
</svg>