<?xml version="1.0" encoding="UTF-8"?>
<svg id="Layer_2" data-name="Layer 2" xmlns="http://www.w3.org/2000/svg" viewBox="0 0 329.94 306.04">
  <defs>
    <style>
      .cls-1 {
        fill: #020e1e;
      }

      .cls-2 {
        fill: #0b95f9;
      }

      .cls-3 {
        fill: #1495fb;
      }

      .cls-4 {
        fill: #0d96fa;
      }

      .cls-5 {
        fill: #0d94fb;
      }

      .cls-6 {
        fill: #fdebcf;
      }

      .cls-7 {
        fill: #0074bf;
      }

      .cls-8 {
        fill: #f5f4f5;
      }

      .cls-9 {
        fill: #01abf7;
      }

      .cls-10 {
        fill: #1a365f;
      }

      .cls-11 {
        fill: #0e95f9;
      }

      .cls-12 {
        fill: #fdebcd;
      }

      .cls-13 {
        fill: #007ac6;
      }

      .cls-14 {
        fill: #031126;
      }

      .cls-15 {
        fill: #1b3860;
      }

      .cls-16 {
        fill: #048cfc;
      }

      .cls-17 {
        fill: #040f20;
      }

      .cls-18 {
        fill: #02aff8;
      }

      .cls-19 {
        fill: #18345d;
      }

      .cls-20 {
        fill: #1295f9;
      }

      .cls-21 {
        fill: #0a1524;
      }

      .cls-22 {
        fill: #f3f3f4;
      }

      .cls-23 {
        fill: #021024;
      }

      .cls-24 {
        fill: #68161b;
      }

      .cls-25 {
        fill: #fdecd0;
      }

      .cls-26 {
        fill: #0c1523;
      }

      .cls-27 {
        fill: #fb635e;
      }

      .cls-28 {
        fill: #010d1c;
      }

      .cls-29 {
        fill: #1497f9;
      }
    </style>
  </defs>
  <g id="Layer_1-2" data-name="Layer 1">
    <g>
      <path class="cls-17" d="M196.25,302.13c-39.56,7.15-90.23,6.01-123.17-16.54-12.88-8.82-20.12-21.75-21.96-37.25l.09-23.38,1.78-25.32c-11.17,2.6-21.65,1.73-31.83-2.19-8.39-8.52-14.89-18.13-20.22-28.84-1.78-3.9-1.16-9.16,2.99-11.4,10.33-5.57,21.17-10.29,32.73-13.24,7.93-2.02,15.01.97,23.71,2.9l-19.2-21.48c-6.93-7.75-1.49-38.23,3.48-51.22,1.36-3.56,5.82-5.91,8.5-6.18,3.6-.36,8.13,1.56,9.03,5.33l5.61,23.48,16.9,10.02c6-3.21,11.93-5.38,18.6-6.97-.46-9.96,1.31-22.39,5.1-20.4l13.43,7.03c.65-3.65.18-7.42,2.51-9.85,14.18-14.74,27.02-22.2,46.98-15.7l-.33,12.54c12.54,1.62,24.68,4.01,36.29,8.57.11,5.62-1.5,9.97-2.99,15.06,8.73,2.22,16.57,4.81,24.2,9.45l11.77-7.02c1.94-1.16,5.29-2.6,5.81-4.99l4.31-19.73c.98-4.5,4.64-7.58,8.8-7.78,3.94-.18,8.28,2.35,9.89,6.58,4.14,10.88,8.75,39.59,5.55,46.51-4.96,10.75-14.51,17.91-22.11,26.76,7.83-2.35,15.74-5.14,23.89-3.52,12.68,2.51,24.78,7.36,35.76,13.97,2.95,1.77,1.96,6.52,1.21,9.38-15.35,25.77-21.75,38.26-54.8,32.17l.72,47.88c-1.41,16.57-9.49,30.78-23.29,39.58-12.15,7.74-24.89,13.08-39.75,15.76Z"/>
      <path class="cls-16" d="M276.55,45.71c-4.14.14-8.54-.87-11.34-3.43l6.47-36.27c.37-2.09.99-6.89,4.05-5.88l16.29,5.35c1.76.58,3.01,2.39,2.18,4.11l-17.64,36.12Z"/>
      <polygon class="cls-4" points="87.8 59.16 72.14 20.41 81.31 16.57 87.8 59.16"/>
      <path class="cls-2" d="M59.17,49.86l1.51,1.75c.58.67.15,2-.65,2.31-.96.38-1.84.21-2.72-.66l-22.79-22.51c.69-2.46,2.59-4.27,5.28-5.4l19.36,24.51Z"/>
      <path class="cls-5" d="M272.92,51.13c2.89,2.96,1.28,6.73-.74,8.93-2.27,2.47-5.73,1.76-8.96.22-2.81-1.34-3.66-3.69-3.21-6.55.38-2.42,2.35-5.48,5.55-5.5,2.41-.02,5.51,1,7.37,2.9Z"/>
      <path class="cls-11" d="M301.31,131.55c-.58.54-1.62.18-1.87-.18-.27-.4-.27-1.48.28-2.18l16.02-20.25c2.59.74,3.82,2.61,4.74,4.85l-19.18,17.77Z"/>
      <path class="cls-20" d="M309.98,141.53c-1.3.27-1.63-.27-2-.43-.55-.24-.85-1.58-.19-1.85l18.93-7.96c1.66-.7,4.43,5.84,2.65,6.21l-19.39,4.03Z"/>
      <path class="cls-29" d="M46.28,65.6l-18.58-7.49c.68-2.27,1.37-3.88,2.95-5.73l14.83,9.67c1.37.89,1.64,3.89.8,3.55Z"/>
      <path class="cls-3" d="M97.82,54.7c.03,1.39-2.07,2.07-3.28,1.16l-.97-14.78c-.07-1.1,1.08-1.81,1.62-1.96.98-.27,2.33.39,2.36,1.93l.26,13.65Z"/>
      <path class="cls-15" d="M189.28,296.81l1-2.92c25.05-17.31,21.68-60.14-10.08-68.08-29.23-7.31-76.24-6.52-79.11,31.63-1.12,14.87,3.12,28.48,16.18,36.73l.69,2.88c-28.67-3.95-61.61-20.28-61.95-52.3-.31-29.15,1.99-57.79,6.57-86.6,4.18-26.27,14.26-49.28,41.83-53.15.59,4.86,1.61,10.12,6.1,12.1,7.76,3.42,16.18,4.37,24.3,5.57l-4.16,7.37c-.76,1.34-1.02,2.81-.47,3.88,1.26,2.43,20.16,6.26,28.15,3.75,8.72-2.74,15.47-8.95,23.36-13.59,1,.76,3.34,3.59,4.83,2.78,8.33-4.5,12.78-15.21,16.29-25,7.63,2.07,15.18,3.92,21.96,8.02,17.41,10.55,23.27,34.75,25.62,55.23,2.92,25.41,4.25,50.21,4.03,75.86-.12,13.38-4.7,26.45-14.34,35.46-12.75,11.91-29.13,17.89-46.03,20.99-1.88.34-3.22.38-4.76-.61Z"/>
      <path class="cls-6" d="M189.28,296.81c-10.02,5.55-55.15,4.52-71.32.24-9.07-5.97-15.29-12.71-17.56-22.92-4.34-19.58.7-40.9,20.4-48.04s42.8-7.76,63.64-1.09c12.54,4.01,21.11,14.21,23.17,27.07,3.03,18.89-1.94,35.68-18.33,44.75Z"/>
      <path class="cls-10" d="M135.32,132.3c1.36-5.94,7.21-9.79,5.53-13.77-5.39-.16-10.7-.2-16.27-1.83l.53-6.04c-5.72-3.56-9.16,3.09-11,3.2-6.54.39-7.22-18.26-4.98-29.08,5.11,3.67,9.88,6.13,15.78,7.73l2.7-11.7c5.88-7.65,14.62-13.82,23.98-16.82,4.74-1.52,10.08.48,15.02.26l-.62,13.45,36.62,7.49-5.4,19.35c-2.02,7.23-5.87,13.82-11.91,17.84-1.28-1.86-2.33-2.84-3.33-3.17-2.01-.66-13.96,10.53-23.85,14.1-7.01,2.53-15.2-.74-22.8-1.02Z"/>
      <path class="cls-25" d="M250.76,141.31c-3.34-12.76-8.88-23-17.73-31.73,5.76-4.24,12.71-5.63,16.2-10.96,5.77-8.8,3.23-25.99,9.94-26.53,2.58-.21,4.22,1.28,5.91,3.9,2.67,13.48,6.91,27.69,5.09,41.95-3.99,8.89-12.64,15.89-19.43,23.37Z"/>
      <path class="cls-12" d="M80.06,109.97c-9.23,8.45-15.14,18.5-18.36,30.82-7.26-6.85-13.03-13.72-18.66-21.69-.24-14.78,1.67-29.4,6.2-43.19.67-2.04,3.55-3,4.92-3.1,1.91-.14,3.48,1.25,4.02,3.58l5.47,23.47,16.4,10.11Z"/>
      <path class="cls-19" d="M258.34,186.66c7.68,5.13,23.9,2.62,26.48.5,6.89-5.64,11.69-13.08,16.36-21.36l-18.52-4.94c-5.06-1.35-9.1.19-12.95,3.21l-13.48,10.56-3.1-22.77c8.58-3.6,21.77-5.32,29.73-2.08l24.87,10.11c1.25.51,2.28,2.39,1.53,3.79-5.39,10.05-11.81,19.02-19.32,27.78-8.45,4.19-17.98,5.07-27.24,3.69-1.74-.75-4.02-1.11-4.56-2.22-.91-1.85-.98-4.62.22-6.26Z"/>
      <path class="cls-19" d="M26.89,187.76c8.69,2.91,17.91,3.54,26.6-.02.69,2.68.3,4.49-.57,6.96-9.54,2.63-19.96,2.08-29.35-1.53-7.58-8.17-13.09-17.17-18.46-26.78-.67-2.11.09-4.64,2.34-5.69,10.19-4.76,20.47-9.85,31.7-12.16,6.39-1.31,13,1.07,19.57,2.83l-3.17,22.95-16.63-12.65c-2.79-2.13-7.47-.92-10.67.04l-15.08,4.5c3.16,8.3,8.38,14.71,13.73,21.56Z"/>
      <path class="cls-18" d="M53.54,184.23c-4.26,4.11-10,3.88-15.53,3.51-6.11-.41-10.18-2.54-13.59-7.76l-5.9-9.03c-1.69-2.66,3.63-2.48,5.87-2.37,2.73.13,9.44.81,11.83,1.67s14.68,9.46,17.26,11.55l.04,2.44Z"/>
      <path class="cls-9" d="M294.73,170.23c-9.03,13.44-10.18,16.6-25.08,16.79-3.92.05-6.4-1.58-9.55-3.12-.39-.68-.9-1.76-.5-2.12,2.18-1.98,13.22-10.47,15.38-11.36,1.77-.73,17.4-2.1,18.97-1.46.37.15.6.65.79,1.26Z"/>
      <path class="cls-7" d="M294.73,170.23l-19.02,2-15.61,11.67-2.62-1.28c-.58-.28-1.3-2.26-.22-3.12,6.2-4.92,12.18-11.9,19.81-14.72,6.17-1.63,13.28,2.74,19.19,3.08.06,1.72-1.12,1.69-1.53,2.37Z"/>
      <path class="cls-13" d="M53.54,184.23l-17.95-12.13-14.91-2.05c-.76-.1-2.05-.98-1.89-.58s.14,1.47-.25,1.48c-.36-.55-1.53-1.4-.94-2.46-.17.3,14.91-4.68,18.96-3.36,6.44,2.09,10.92,8.66,16.52,12.3,2.42,1.57,2.35,4.99.46,6.81Z"/>
      <path class="cls-28" d="M217.93,218.77c-3.94,8.35-14.02,12.27-21.48,7.31-10.04-6.67-11.54-20.65-5.31-30.49,4.87-7.7,15.35-9.48,22.11-3.12s8.9,17.36,4.68,26.3Z"/>
      <path class="cls-1" d="M115.1,220.81c-3.13,4.7-7.45,7.08-12.08,7.2s-9.45-2.02-12.31-6.28c-5.49-8.19-4.96-19.69,1.09-27.35,2.77-3.5,6.55-5.47,10.3-5.54,4.3-.08,8.34,1.78,11.39,5.39,6.13,7.26,7.1,18.33,1.6,26.58Z"/>
      <path class="cls-14" d="M108.97,162.44c-12.29-5.19-17.85,8.12-20.45,6.1-1.6-1.24-1.31-2.38-.23-3.81,9.04-12.03,24.32-8.88,24.03-4.35-.08,1.28-1.72,2.74-3.35,2.06Z"/>
      <path class="cls-23" d="M216.1,168c-8.83-11.33-19.08-4.09-20.94-6.91-2.8-4.25,13.55-9.41,23.26,3.09.76.98,1.47,2.02,1.2,3.16-.22.92-2.28,2.25-3.52.66Z"/>
      <path class="cls-24" d="M164.38,280.27l-2.15.75c-6.36-5.88-12.84-3.9-18.6,1.6l-2.04-1.03c-1.78-10.4,2.75-20.59,11.49-20.2,8.15.36,12.44,8.99,11.31,18.89Z"/>
      <path class="cls-27" d="M164.38,280.27c-.53,4.66-2.68,9.33-7.47,10.98-6.96,2.4-14.11-2.54-15.33-9.67,2.95-1.88,5.58-4.95,9.65-5.91,5.11-1.21,9.68,1.33,13.14,4.59Z"/>
      <path class="cls-21" d="M186.11,241.09c.62,4.83-6.67,12.06-10.97,8.42-4.04-3.43,1.17-11.49,5.35-12.27,3.17-.59,5.14.14,5.62,3.85Z"/>
      <path class="cls-26" d="M132.37,249.3c-3.11,3.22-7.41.05-9.33-2.26-2.11-2.54-3.33-7.26.05-9.48,2.82-1.85,6.1.81,7.7,2.76s4.13,6.35,1.58,8.98Z"/>
      <path class="cls-22" d="M198.15,209.83c-3.85-.79-5.1-5.01-4.42-8.07.59-2.65,3.24-5.85,6.66-5.5,4.08.42,5.83,3.85,5.54,7.23s-2.93,7.33-7.78,6.34Z"/>
      <path class="cls-8" d="M100.65,195.59c4.56-1.41,8.88,1.86,9.62,5.21.93,4.23-1.51,8.17-4.98,9.53-4.11,1.61-8.1-1.07-9.39-4.38-1.57-4.04.11-8.92,4.76-10.36Z"/>
    </g>
  </g>
</svg>