<?xml version="1.0" encoding="UTF-8"?>
<svg id="Layer_2" data-name="Layer 2" xmlns="http://www.w3.org/2000/svg" viewBox="0 0 311.33 275.22">
  <defs>
    <style>
      .cls-1 {
        fill: #9addfb;
      }

      .cls-2 {
        fill: #bce7fb;
      }

      .cls-3 {
        fill: #1a375f;
      }

      .cls-4 {
        fill: #99defb;
      }

      .cls-5 {
        fill: #021125;
      }

      .cls-6 {
        fill: #18355d;
      }

      .cls-7 {
        fill: #fdeccf;
      }

      .cls-8 {
        fill: #17355e;
      }

      .cls-9 {
        fill: #040f22;
      }

      .cls-10 {
        fill: #1b3861;
      }

      .cls-11 {
        fill: #01aef8;
      }

      .cls-12 {
        fill: #00adf7;
      }

      .cls-13 {
        fill: #9addfa;
      }

      .cls-14 {
        fill: #99e2fc;
      }

      .cls-15 {
        fill: #f2f2f2;
      }

      .cls-16 {
        fill: #0076c3;
      }

      .cls-17 {
        fill: #49c9f4;
      }

      .cls-18 {
        fill: #fcebce;
      }

      .cls-19 {
        fill: #f3f3f2;
      }

      .cls-20 {
        fill: #0a1424;
      }

      .cls-21 {
        fill: #0079c2;
      }

      .cls-22 {
        fill: #fdebce;
      }

      .cls-23 {
        fill: #031127;
      }

      .cls-24 {
        fill: #031227;
      }

      .cls-25 {
        fill: #0f1723;
      }

      .cls-26 {
        fill: #ace5fb;
      }

      .cls-27 {
        fill: #7bd5f9;
      }

      .cls-28 {
        fill: #aee5fa;
      }

      .cls-29 {
        fill: #afe6fc;
      }

      .cls-30 {
        fill: #020f22;
      }

      .cls-31 {
        fill: #a9e5fc;
      }

      .cls-32 {
        fill: #091221;
      }
    </style>
  </defs>
  <g id="Layer_1-2" data-name="Layer 1">
    <g>
      <path class="cls-9" d="M242.28,60.88l-.31-2.04c1.52-2.89,2.5-6.33,2.95-10.33l2.24-.87,2.41-11.04c1.01-4.63,4.66-7.71,8.97-7.79,3.53-.07,8.18,2.02,9.52,6.22,4.52,14.15,9.85,45.37,2.12,54.19l-18.68,21.31c7.5-.76,14.56-4.68,22.41-3.24,12.25,2.24,23.79,7.26,34.64,13.07,3.27,1.76,3.41,7.29,1.7,9.87l-15.91,24.08c-7.66,10.14-23.37,11.5-36.44,8.62l1.64,47.05c.45,13.04-3.83,26.15-12.46,36.12-25.8,29.77-83.76,31.39-122.03,27.71-18.07-1.73-34.62-6.56-49.83-16.07-14.67-9.16-24.14-24.35-23.49-41.84l1.83-49.23c-10.92,3.63-22.84,2.13-33.48-2.67-7.79-8.97-13.9-18.42-19.38-28.74-1.58-4.29-.6-9.06,3.66-11l25.97-11.87c3.85-1.76,8.42-3.45,12.61-2.68l18.43,3.36-18.61-19.87c-3.09-3.3-4.19-7.51-4.14-12.25.16-14.42,2.19-28.25,5.67-42.03-.35-5.06.91-7.06,3.79-6,2.77-2.52,6.36-3.07,9.45-2.15,2.83.85,5.48,3.25,6.2,6.56l2.19,10.02,2.16.71c.93,4.42,1.55,8.85,1.86,13.28,1.12,1.77,2.25,2.66,3.99,3.7l12.96,7.79c5.98-3.61,12.19-5.27,19.04-6.87.04-10.74.93-22.55,6.38-19.29l12.17,7.27c.05-5.25,1.1-9.57,4.74-12.76,14.75-12.91,23.28-18.69,43.57-13.24,1.43,4.69.21,8.42.05,12.78,11.65,1.39,22.43,3.54,33.14,7.18,2.04.69,3.28,2.84,2.73,4.83l-2.99,10.78c7.31,1.82,14.27,3.84,21.07,7.34,5.69-3.06,10.7-5.9,15.45-9.95Z"/>
      <path class="cls-1" d="M27.82,90.33c0,2.4-.29,3.3-.75,4.27-.43.89-4.06.96-4.07.05l-.5-60.23c-.01-1.55,1.31-2.95,2.18-3.25,1.04-.36,3.17.2,3.17,1.86l-.02,57.29Z"/>
      <path class="cls-4" d="M69.96,61.31c-.59-.93-1.77-1.61-2.08-3.28l-1.94-10.7c2.27-2.56.37-5.87.36-8.73l-.07-36.21c0-1.4,2.32-2.62,3.19-2.35s2.49,1.46,2.47,3.08l-.69,48.89c-.05,3.34.53,6.53-1.25,9.31Z"/>
      <path class="cls-13" d="M247.16,47.64l-2.44,11.02c-.3,1.35-1.66,1.55-2.44,2.21-1.17-1.24-1.3-2.88-1.35-4.87l-.81-28.09.31-14.85c.03-1.63,1.38-2.63,2.2-3.1.67-.38,3.09.09,3.09,1.35l.2,34.68c0,1.11.44,1.78,1.24,1.63Z"/>
      <path class="cls-29" d="M292.12,93.96c0,1.02-1.17,1.44-1.64,1.43s-1.8-.43-1.81-1.45l-.38-37.6c-.01-1.07,1.59-1.23,2.11-1.08.82.25,1.81,1.27,1.8,2.74l-.08,35.96Z"/>
      <path class="cls-31" d="M96.02,44.41c.01,1.62-1.06,2.48-1.63,2.68-.79.28-2.63-.62-2.66-2.11l-.49-27.81c-.02-1.35,1.18-2.24,1.63-2.8.56-.7,2.89-.42,2.91.92l.25,29.12Z"/>
      <path class="cls-26" d="M281.62,44.37c-.01,1.88-1.09,2.89-2.16,2.98-.98.09-2.41-1.08-2.41-2.47l-.06-20.9c0-1.7,1.2-2.98,2.47-2.95,1.48.03,2.29,1.15,2.28,2.95l-.12,20.4Z"/>
      <path class="cls-28" d="M48.1,32.9c-1.47,1.33-3.25,3.86-3.79,6-2.1-9.22-1.05-18.87-1.4-28.98-.06-1.63.47-3.26,1.57-3.73.86-.37,3.01.76,2.99,2.17l-.24,18.67c-.03,2.09-.85,4.38.87,5.86Z"/>
      <path class="cls-2" d="M221.47,44.45c-.05,1.88-1.23,2.65-1.91,2.82s-2.16-.5-2.16-1.64l.03-19.32c0-1.43,2-2.17,2.97-1.43.76.58,1.55,1.56,1.51,3.1l-.44,16.47Z"/>
      <path class="cls-10" d="M192.22,265.65l.33-2.23c24.9-15.73,22.05-58.01-9.21-65.41s-82.91-6.45-81.68,37.14c.33,11.57,3.65,21.18,13.74,27.65l.73,2.81c-1.79,1.68-3.83.81-6.05.39-18.21-3.44-38.75-12.55-47.48-28.58-4.14-7.59-5.93-16.64-5.86-25.49.2-24.22,1.72-47.58,4.64-71.5,2.52-20.68,8.19-49.58,24.54-61.53,6.1-4.46,13.46-6.88,20.77-8.16.94,4.34,1.08,9.55,4.59,11.9,7.64,5.11,17.04,6.58,26.06,6.93l-4.2,7.83c-.71,1.32-.83,4.63,1.41,5.11,25.34,5.49,26.99,4.81,49.33-11.5,1.24,1.07,2.62,2.51,3.78,2.72,5.19.97,14.37-15.05,16.81-25.68l15.67,4.9c18.79,5.88,26.5,35.72,29.17,55.63,3.73,27.8,5.27,55.15,4.8,83.31-.22,13.14-5.29,25.78-14.5,34.62-10.5,10.08-23.77,15.09-37.67,18.39-3.35.79-6.24,1.78-9.74.75Z"/>
      <path class="cls-22" d="M192.22,265.65c-19.82,5.6-40.57,4.17-61.2,3.33-5.44-.75-10.5-.88-14.88-3.37-8.79-5.11-14.42-12.91-15.83-23.03-3.09-22.23,4.36-39.64,26.44-46.03,19.82-5.73,41.23-5.38,60.95.63,12.33,3.76,20.19,13.44,22.31,25.87,1.83,10.72,1.24,21.69-5.04,31.13-2.71,4.07-7.68,10.05-12.74,11.48Z"/>
      <path class="cls-3" d="M168.03,90.06c-2.58,1.18-5.57,1.92-7.22,3.87-.92,1.65,2.43,2.77,3.06,3.45.59,1.94-2.77,3.9-4.86,3.73l-15.97-1.32c-1.76-.15-2.62-2.58-2.95-3.73-1.1-3.87,4.74-7.55,1.98-10.2-8.82-1.47-20.64-.9-28.01-6.96-5.2-7.24-2.81-18.35-2.06-26.73,5.18,3.06,9.79,6.83,15.92,7.3l2.97-12.6c6.03-7.09,14.43-12.46,23.24-15.54,4.58-1.6,10.08.45,14.52.66l-.8,13.18,17.06,2.81c6.48,1.07,12.68,1.74,18.91,4.72l-6.78,24.04c-.89,3.14-3.32,4.39-5.13,6.24-1.26,1.29-.3,5.35-3.94,5.86-.28-1.03-2.59-3.47-3.8-2.72l-11.33,7.02c-1.57.97-3.88-.87-4.79-3.08Z"/>
      <path class="cls-7" d="M63.15,107.44l-14.96-15.65c-3.15-3.29-4.57-7.06-4.44-11.86.4-14.02,1.98-27.7,6.03-40.99.74-2.42,3.64-3.83,5.46-3.5,7.07,1.27,3.89,19.82,10.27,28.99,3.71,5.34,10.89,7.18,16.68,11.23-9.3,8-15.01,18.75-19.05,31.77Z"/>
      <path class="cls-18" d="M249.46,105.07c-3.36-11.46-8.2-22.24-17.57-30.66l9.31-6.35c2.46-1.68,6.21-3.45,7.45-6.38,5.66-13.37,3.3-27.73,9.86-28.09,2.11-.12,4.51,1.11,5.22,3.75,3.95,14.79,6.17,29.87,5.01,45.17-5.8,8.21-11.96,15.27-19.28,22.56Z"/>
      <path class="cls-6" d="M27.09,155.11c8.43,3.15,17.83,4.22,26.49-.03,1.05.97,1.69,6.08-.46,6.89-9.64,3.64-20.06,1.52-29.39-1.43-6.65-8.3-22.78-29.2-17.86-31.66l14.01-6.99c14.26-7.12,24.58-9.55,40.31-3.7l-3.85,23.19-12.48-10.31c-7.84-6.48-19.28-1.22-30.7,2.66l13.93,21.36Z"/>
      <path class="cls-8" d="M257.15,150.79c6.59,4.78,21.38,2.64,25.25-.56,6.47-5.35,10.53-13.08,15.96-20.02l-12.62-4.09c-4.17-1.35-10.21-3.1-14.05-.38l-16.53,11.74-3.29-21.77c23.38-8.35,32.35-.3,51.47,6.81,2.16.8,3.93,2.9,2.65,5.28-5.48,10.18-11.62,19.22-19.48,27.9-8.6,3.61-18.43,5.36-27.76,2.41-2.2-.7-2.53-5.17-1.61-7.34Z"/>
      <path class="cls-11" d="M53.76,152.16c-2.85,1.84-5.17,3.15-8.86,2.97-17.89-.86-15.2-1.93-25.36-16.09,1.1-3.01,9.56-3.13,12.6-2.68,4.11.62,20.08,8.94,21.84,11.78.9,1.45.65,2.63-.22,4.01Z"/>
      <path class="cls-12" d="M292.71,132.55c-4.11,5.12-6.34,11.08-11.32,14.92-5.21,4.01-18.93,5.4-24.45.31l.17-3.08c.57-1.13,17.97-13.06,21.29-12.02,4.78-.41,9.55-.45,14.33-.12Z"/>
      <path class="cls-16" d="M53.76,152.16c.23-1.36-.48-2.25-1.94-3.06-5.61-3.13-10.55-8.02-16.67-10.09-5.01-1.7-10.67.07-15.62.03-.57-.8-1.73-1.66-1.43-2.54.43-1.25,15.7-5.59,19.61-3.98,6.45,2.66,11.35,8.66,17.1,12.68,2.2,1.54.55,5.93-1.06,6.96Z"/>
      <path class="cls-21" d="M292.71,132.55c-6.77,3.28-15.85.8-19.67,3.51l-13.48,9.54c-.74.52-2,.62-2.38,1-.28.28-.19,1.23-.26,1.18-2.63-2.42-.36-5.85,2.39-7.54,9.63-5.94,11.04-17.29,33.39-7.68Z"/>
      <path class="cls-30" d="M102.72,195.3c-1.14-.53-1.75-1.56-1.83-3.1-1.7-1.78-3.46-1.31-5.3,1.41l-2.39.07c-3.78-4.45-4.45-10.48-2.95-17.14-1.56-.61-3.35-.19-5.26-.18s-2.73-1.46-2.52-2.86c.59-4.08,17.48-1.58,34.16-8.9,1.12-.49,2.46-1.23,3.58-.78.75.3,1.66,1.01,1.49,2.43-.11.96-1.09,2.18-3.08,3.13,3.41,7.69,3.35,16.04-1.1,23.01-3.13,4.91-7.48,7.34-14.09,7.66-.74-1.28-.52-3.31-.71-4.76Z"/>
      <path class="cls-5" d="M216.86,192.2l-2.53-.41c-1.01-1.44-2.65-2.04-4.93-1.8-1.04.1-1.5.79-1.48,1.88l.11,7.54c-7.19.71-14.28-3.21-17.04-10.47-2.44-6.42-1.13-13.26,1.51-19.62-2.08-.98-3.21-2.37-3.19-3.7.02-1.14,1.85-3.06,3.28-2.34,6.21,3.15,12.5,4.68,19.39,5.77l14.65,2.31c1.27.2,1.66,2.34,1.27,3.05-1.48,2.72-5.15.89-6.39,1.5-2.18,1.07,1.98,10.82-4.64,16.29Z"/>
      <path class="cls-27" d="M102.72,195.3c-2.61,12.22-.02,21.49-4.55,26.97-1.78,2.16-5.49,2.44-8.02,1.23-7.08-3.37-4.41-13.3-.53-21.89l3.59-7.93c.72-1.6,2.69-3.34,4.23-4.24,1.73-1.02,3.6.27,4.52,1.04,1.67,1.41,1.19,2.87.77,4.82Z"/>
      <path class="cls-14" d="M216.86,192.2c4.88,10.92,12.11,21.59,4.85,29.53-1.85,2.02-6.06,1.88-8.28.46-1.95-1.24-3.56-4.16-3.58-7.16l-.07-14.03c-.02-3.73-1.67-7.7-.38-11.02.61-1.56,3.12-2.41,4.41-1.51,1.01.7,2.3,2.03,3.05,3.73Z"/>
      <path class="cls-24" d="M219.24,153.44c-1.15,6.25-27.61-2.89-29.51-12.95-.15-.81.98-2.58,2.59-2.85,6.12,7.37,14.6,12.42,24.46,12.71,1.83.05,2.71,1.67,2.45,3.09Z"/>
      <path class="cls-23" d="M120.84,142.89c-10.41,12.96-29.17,15.91-28.96,10.6.07-1.67,1.19-2.32,3.15-2.5,17.58-1.61,21.92-12.27,23.64-12.75.95-.27,1.79.28,2.41,1.13s.8,2.22-.24,3.53Z"/>
      <path class="cls-17" d="M93.92,241.3c-.39,3.14-3.23,4.72-5.41,4.62-1.81-.08-4.55-2.64-4.15-5,.56-3.28,3-5.95,5.61-8.26,2.52,2.06,4.41,4.97,3.95,8.63Z"/>
      <path class="cls-25" d="M170.35,250.09c-8.38-8.5-21.45-8.54-29.4-.22-.77.8-1.4,1.46-2.41,1.51-.78.04-2.07-.76-2.24-1.98-.11-.77.25-1.85,1.32-2.98,10.04-10.67,27.83-9.66,37.12,1.69.8.98-.43,2.61-1.06,3.02-1.05.69-1.81.5-3.33-1.04Z"/>
      <path class="cls-20" d="M134.74,222.23c-4.61,3.15-9.52-.21-11.58-4.49-1.1-1.81-1.54-3.73-.64-5.67.56-1.22,2.26-2.51,4.31-2.76,5.36,1.5,9.4,6.67,7.91,12.92Z"/>
      <path class="cls-32" d="M188.74,215.44c-.92,4.81-7.63,10.19-11.45,6.24s4.49-14.3,9.48-11.97c2.09.98,2.56,2.63,1.97,5.73Z"/>
      <path class="cls-15" d="M105.75,174.21c3.25,1.11,2.45,6.29,1.17,8.19-2.05,3.06-5.83,3.74-9.08,2.16-2.68-1.3-4.75-6.2-1.86-8.73,1.83-1.61,7.43-2.42,9.77-1.62Z"/>
      <path class="cls-19" d="M205.29,173.61c2.9,2.16,2.05,6.34.29,8.45-2.14,2.56-5.72,3.31-8.7.83-3.41-2.84-2.96-9.57,1.56-11.32,1.81-.7,5.3.89,6.84,2.03Z"/>
    </g>
  </g>
</svg>