<?xml version="1.0" encoding="UTF-8"?>
<svg id="Layer_2" data-name="Layer 2" xmlns="http://www.w3.org/2000/svg" viewBox="0 0 328.28 332.91">
  <defs>
    <style>
      .cls-1 {
        fill: #fda215;
      }

      .cls-2 {
        fill: #020f21;
      }

      .cls-3 {
        fill: #021228;
      }

      .cls-4 {
        fill: #6c161c;
      }

      .cls-5 {
        fill: #0c1625;
      }

      .cls-6 {
        fill: #1a3760;
      }

      .cls-7 {
        fill: #01abf7;
      }

      .cls-8 {
        fill: #18355e;
      }

      .cls-9 {
        fill: #091526;
      }

      .cls-10 {
        fill: #1a365f;
      }

      .cls-11 {
        fill: #17345e;
      }

      .cls-12 {
        fill: #040f21;
      }

      .cls-13 {
        fill: #fda314;
      }

      .cls-14 {
        fill: #fda617;
      }

      .cls-15 {
        fill: #0077c3;
      }

      .cls-16 {
        fill: #fda412;
      }

      .cls-17 {
        fill: #01acf8;
      }

      .cls-18 {
        fill: #fda015;
      }

      .cls-19 {
        fill: #fdebce;
      }

      .cls-20 {
        fill: #fc9f12;
      }

      .cls-21 {
        fill: #f5f5f5;
      }

      .cls-22 {
        fill: #fda115;
      }

      .cls-23 {
        fill: #fdecd0;
      }

      .cls-24 {
        fill: #fd9e13;
      }

      .cls-25 {
        fill: #fc625b;
      }

      .cls-26 {
        fill: #fda214;
      }

      .cls-27 {
        fill: #fda114;
      }

      .cls-28 {
        fill: #0078c2;
      }
    </style>
  </defs>
  <g id="Layer_1-2" data-name="Layer 1">
    <g>
      <path class="cls-12" d="M243.92,314c-36.56,21.41-90.13,22.87-130.76,13.18-15.31-3.65-29.25-9.77-41.17-19.87-23.42-19.83-16.08-53.32-15.2-82.72-7.72,3.31-15.28,2.89-23.02,2.06-7.28-.78-13.3-3.52-17.45-9.69-6.04-7.24-11.02-15.12-15.32-23.63-1.98-3.91-1.1-9.05,3.04-11.36,11.33-6.32,23.26-12.13,36.16-14.55,7.82-1.47,14.72,2.09,22.84,3.37-7.56-7.62-14.83-14.21-20.93-22.5-2.54-3.45-3.38-7.18-3.22-11.64.47-13.61,2.15-26.91,5.81-39.88,1.32-4.69,6.42-7.09,10.36-7.03,5.19.08,8.21,3.95,9.47,9.17l4.85,20.08,18.95,11.5c6.83-3.8,13.49-6.18,21.27-8.17.08-11.58.51-23.15,7.44-19.18l11.87,6.79c-.06-7.12,2.98-11.99,8.28-15.73,7.02-4.94,13.92-10.52,22.62-12.17,5.15-.98,10.52.74,15.6,1,3.63.19,5.08,2.87,4.83,6.27l-.55,7.53c12.47,1.54,24.21,3.93,36.02,7.8,1.65.54,1.91,3.3,1.51,4.62l-3.38,11.3c8.39,1.94,16.09,4.39,23.79,8.81l18.24-10.51,4.37-19.55c1.18-5.3,4.05-9.07,9.04-9.58s9.22,2.33,10.94,7.46c3.69,10.97,4.81,22.3,5.94,33.94.49,5.06.89,10.71-2.07,15.14-6.1,9.1-14.02,16.34-21.7,24.42,8.3-1.5,15.93-5.56,24.3-4.15,13.7,2.31,26.64,7.76,38.51,14.56,3.22,1.85,2.29,7.54,1.23,10.27-5.75,10.93-12.5,20.28-20.95,29.37-11.36,5.64-24.53,6.75-37.07,2.56,1.31,37,8.68,69.13-24.49,90.7Z"/>
      <path class="cls-18" d="M104.19,72.45c-3.03-2.83-3.92-7.06-5.76-10.65L70.93,7.88l13.38-7.88,24.51,69.64c.39,1.1-3.66,3.61-4.62,2.8Z"/>
      <path class="cls-27" d="M304.34,57.95l-25.63,24.86c-.98.95-2.04.34-2.6-.04s-2.04-1.87-1.31-2.89l39.65-55.24c4.69,3.96,8.18,7.44,11.53,12.16l-21.64,21.16Z"/>
      <path class="cls-22" d="M316.19,284.24c-2.64,3.79-.8,13.41-5.04,13.48-3.84.07-4.46-8.63-8.85-11.79l-9.33-2.52c-8.35-2.26,5.19-6.46,8.14-10.23,3.12-3.99,1.78-14.13,5.03-14.21,2.84-.07,3.93,8.44,7.5,11.73,2.75,2.53,8.67,1.93,11.57,4.01,3.74,2.7-6.36,5.72-9.02,9.52Z"/>
      <path class="cls-20" d="M253.71,82.3c-2.07-.18-3.58-1.31-4.76-2.79l21.4-53.61,10.95,7.89-27.59,48.51Z"/>
      <path class="cls-26" d="M83.95,79.74c-11.7-13.94-22.38-27.58-33.35-42.07l10.29-8.43,27.44,48.22c-1.12,1-2.12,1.85-4.37,2.27Z"/>
      <path class="cls-1" d="M18.77,106.21c-3.3,2.72-5.82,6.56-10.03,6.71l-.19-11.09c-1.33-3.77-5.77-5.68-7.83-8.68,4.38-5.17,12.32,1.17,16.38-8.13.69-1.59,3.43-4.6,5.13-2.93,3.23,3.16-.66,11.57,6.25,17.87,1.46,1.33,2.43,3.67,1.68,4.8-3.27,4.91-9.17-.37-11.39,1.47Z"/>
      <path class="cls-24" d="M25.5,330.71l-8.91-8.55,29.03-23.53c.97-.78,3.16,1.26,3.52,2.02.47,1.01-.84,1.69-1.73,2.8l-21.9,27.25Z"/>
      <path class="cls-14" d="M6.3,293.37c-2.78-3.84-3.86-6.78-4.93-11.08l33.1-8.07c1.35-.08,2.31,4.07.97,5.24l-29.15,13.92Z"/>
      <path class="cls-16" d="M304.91,318.67l-8.46,7.64-20.18-25.26c-.95-1.19-1.23-2.25-.24-3.41.75-.87,2.23-1.09,3.67.11l25.21,20.93Z"/>
      <path class="cls-13" d="M328.28,94.78l-26.29,11.31c-1.32.57-2.7.92-3.68.86-.87-.05-2.77-2.76-2.08-3.33l26.57-18.32c2.4,2.8,3.32,5.14,5.48,9.48Z"/>
      <path class="cls-6" d="M202.17,321.84l.7-2.8c25.96-18.86,22.6-61.2-11.2-69.67-29.48-7.39-82.29-7.79-85.64,31.57-1.3,15.2,2.31,29.9,15.78,38.53l.84,2.88c-1.18,1.17-2.62,1.21-4.31.83-27.97-6.33-56.54-20.47-57.59-51.65-.99-29.47,1.71-58.57,5.81-87.79,1.45-10.34,4.06-19.66,8.12-29.02,7.04-16.22,18.57-24.15,35.81-27.46,1.12,4.72,1.34,10.07,5.27,12.31,8.05,4.6,17.41,6.03,26.7,6.59l-4.6,8.99c-3.02,5.91,21.35,9.21,30.5,6.22l22.71-13.56,2.63,2.53c3.69,3.55,16.07-11.87,18.2-25.08,9.77,2.21,19.83,4.97,27.38,11.84,20.74,18.85,21.92,55.88,23.76,84.61,1.06,16.53,2.33,32.35,1.15,48.93-.87,12.2-5.8,24.57-14.86,32.68-10.96,9.81-24.52,14.68-38.37,18.72-3.18.93-5.85.93-8.81-.2Z"/>
      <path class="cls-19" d="M202.17,321.84c-12.05,7.26-68.95,6.73-79.52.51-9.97-5.87-16.53-15.05-18.12-26.62-2.98-21.73,3.04-39.93,24.49-46.93,22.29-7.28,46.62-7.07,68.96.39,22.63,7.56,28.03,33.72,20.42,54.19-3.07,8.27-8.91,14.04-16.23,18.45Z"/>
      <path class="cls-10" d="M176.82,151.58c-10.55,8.95-19.53,6.47-33.66,4.19,1.03-5.65,7.02-10.69,5.07-13.14-1.46-1.84-10.05.8-18.33-3.44-1.02-.52-1.64-3.37-4.15-2.19-2.33,1.09-5.16.57-7.13-.65-3.87-2.4-4.99-19.16-2.87-28.77,6.11,4,14.59,9.61,16.88,7.64,1.79-1.55.53-9.51,3.21-12.45,6.4-7.02,14.75-12.91,24.06-15.52,4.91-1.38,10.39.76,15.38.84l-.79,12.98c12.79,2.19,25.1,3.61,37.75,7.45l-7.43,24.26c-1.67,5.46-5.81,9.4-9.6,13.33-1.16-2-3.08-4-4.3-3.23l-7.68,4.82-2.8-3.79c-1.19-1.61-3.75.93-4.77,2.29-1.18,1.58-.65,3.27,1.16,5.38Z"/>
      <path class="cls-19" d="M65.65,165.52c-7.2-5.71-13.6-12.76-19.43-20.34-1.67-2.17-2.14-4.85-2.19-7.62.14-13.33,1.97-26.15,5.44-38.92.75-2.77,3.31-4.11,5.59-3.94,7.6.59,3.96,18.7,11.04,27.4,4.54,5.56,12.31,6.91,17.99,11.62-9.33,8.18-14.81,18.62-18.44,31.79Z"/>
      <path class="cls-23" d="M260.69,164.94c-3.46-12.43-9.27-23.3-18.32-32.03,5.48-4.45,13.15-5.86,17.13-11.43,6.06-8.47,3.05-25.17,9.9-26.67,2.04-.44,5.1.63,5.85,3.36,3.27,11.95,5.44,23.97,6.06,36.5.16,3.3-.1,6.42-1.44,9.22-5.71,7.46-11.46,14.11-19.17,21.04Z"/>
      <path class="cls-8" d="M291.28,213.97c6.11-.87,9.64-3.34,12.61-8.1,3.32-5.32,8.11-9.66,10.22-16.17-7.88-2.68-15.53-4.44-23.48-5.49-2.82-.37-5.58,1.35-7.55,2.88l-16.81,13.05-1.52-15.42c-.31-3.14.82-4.99-2.04-8.46,22.07-10.15,35.86-2.26,55.77,6.55,1.49.66,3.08,1.1,3.62,2.02.94,1.61.58,3.44-.1,5.29-6.1,9.55-12.46,18.41-19.94,27.06-10.9,4.31-22.6,5.02-33.67.72-.96-1.76-1.34-3.72-.33-6.85,6.97,4.38,14.89,4.12,23.23,2.93Z"/>
      <path class="cls-11" d="M13.14,191.21c4.21,8.61,8.81,15.09,14.17,21.78,9.79,4.38,21,5.4,30.1-.32,1.17,1.67.53,3.71.13,5.22-.33,1.25-1.89,2.18-3.86,2.91-9.24,2.54-18.65,2.15-27.79-1.3-8.79-8.04-15.63-17.67-20.45-28.61-.96-2.17-.08-4.3,2.04-5.39,9.08-4.65,18.21-8.65,27.89-12.07,5.9-2.08,11.52-1.75,17.66-.04,2.4.67,8.49.91,8.86,4.24l-2.36,22.39-13.34-10.87c-4.3-3.5-9.8-4.57-15.2-3.03l-17.85,5.08Z"/>
      <path class="cls-17" d="M56.55,209.92c-9.29,7.14-24.6,3.12-27.01-.06l-9.9-13.08c1.16-3.36,8.96-3.41,12.27-3.1,7.16.68,18.89,8.91,24.6,13.77l.04,2.47Z"/>
      <path class="cls-7" d="M307.67,195.13c-3.37,4.38-6.87,10.49-11.75,13.8-5.31,3.6-19.22,4.45-25.65-.24-.36-.7-.81-1.81-.39-2.15,10.76-8.51,22.22-16.47,36.5-13.33.93.2,1.31.89,1.3,1.92Z"/>
      <path class="cls-28" d="M56.55,209.92l-17.09-11.94c-5.75-3.79-13.6-2.05-19.82-1.2-.49-.64-1.62-1.36-1.09-2.54s15.37-5.92,20.6-3.95c6.73,2.53,11.61,8.62,17.55,12.23,1.89,1.15,2.49,2.49,2.2,4.61-.17,1.26-1.11,1.83-2.36,2.79Z"/>
      <path class="cls-15" d="M307.67,195.13c-4.59-1.48-17.12-.1-19.31,1.36l-18.09,12.19c-.88-.64-3.59-1.23-3.56-3.33,7.12-5.46,13.8-12.48,22.12-16.61,6.2-1.12,13.5,2.11,19.59,3.3,1.47.29-.22,2.39-.75,3.08Z"/>
      <path class="cls-2" d="M122.74,243.13c-2.8,5.19-7.3,7.87-11.83,8.42-5.44.65-10.68-1.44-14.18-6.06-7.72-10.2-4.43-25.56,7.31-31.34,5.75-2.83,12.48.07,16.53,4.76,5.6,6.49,6.36,16.47,2.17,24.23Z"/>
      <path class="cls-2" d="M228.5,243.9c-2.92,4.94-7.84,7.34-12.41,7.5-5.15.19-9.99-2.36-13.46-6.93-6.09-8.01-4.84-20.11,2.32-27.39,6.06-6.16,15.89-5.69,21.37.99,5.83,7.1,7.01,17.63,2.17,25.82Z"/>
      <path class="cls-3" d="M116.71,187.2c-7.56-2.81-15.61-.19-19.96,6.55-.62.96-2.26.5-2.7.01s-1.6-1.73-.93-2.79c8.41-13.28,26.86-10.95,26.46-5.91-.07.91-1.69,2.58-2.87,2.13Z"/>
      <path class="cls-3" d="M230.58,193.19c-3.68,2.57-7.35-10.48-21.33-5.92-1.66.54-3.02-.2-3.44-1.21-.55-1.34.09-2.98,1.8-3.5,14.84-4.52,27.13,7.72,22.96,10.63Z"/>
      <path class="cls-4" d="M181.79,308.24l-2.5-.53c-7.57-12.66-26.59-12.34-34.69-.31l-2.57.36c-8.08-12.75-7.99-28.3.39-25.85,13.18,3.85,26.41,4.04,39.61.04,8.45-2.56,9.37,12.73-.25,26.28Z"/>
      <path class="cls-25" d="M181.79,308.24c-5.03,7.09-13.31,10.03-22.17,9.49-7.66-.47-13.62-3.69-17.59-9.96,4.15-7.35,11.88-11.52,20.09-11.46s16.06,3.92,19.66,11.93Z"/>
      <path class="cls-9" d="M198.13,264.78c-.46,5.01-4.57,9.09-9.47,9.54-2.62.24-4.33-1.97-3.89-4.62,1.1-6.66,7.94-11.34,11.9-8.57.81.57,1.62,1.94,1.46,3.65Z"/>
      <path class="cls-5" d="M138.6,273.36c-2.66,2.73-7.04-.26-8.89-2.2-2.24-2.34-4.3-6.87-1.22-9.52,2.85-2.46,6.95.05,8.73,2.07,2.01,2.28,4.31,6.65,1.38,9.65Z"/>
      <path class="cls-21" d="M106.68,219.21c4.53-1.04,7.75,2.41,8.38,5.59.86,4.29-1.9,8.14-5.12,8.9-4.49,1.06-7.76-1.39-8.9-5.01s1.01-8.42,5.64-9.48Z"/>
      <path class="cls-21" d="M215.07,233.72c-3.97.93-6.79-1.04-8.4-3.51-1.69-2.6-1.35-6.04,1.01-8.42s5.51-3.71,8.64-2.31c2.43,1.08,5.01,3.61,4.94,6.69s-2.16,6.61-6.19,7.55Z"/>
    </g>
  </g>
</svg>