<?xml version="1.0" encoding="UTF-8"?>
<svg id="Layer_2" data-name="Layer 2" xmlns="http://www.w3.org/2000/svg" viewBox="0 0 338.55 248.26">
  <defs>
    <style>
      .cls-1 {
        fill: #fc6f9d;
      }

      .cls-2 {
        fill: #fc739e;
      }

      .cls-3 {
        fill: #fc7274;
      }

      .cls-4 {
        fill: #c7f0fd;
      }

      .cls-5 {
        fill: #091322;
      }

      .cls-6 {
        fill: #021228;
      }

      .cls-7 {
        fill: #fb6b97;
      }

      .cls-8 {
        fill: #18355e;
      }

      .cls-9 {
        fill: #0070bc;
      }

      .cls-10 {
        fill: #fc769f;
      }

      .cls-11 {
        fill: #17345d;
      }

      .cls-12 {
        fill: #fc7577;
      }

      .cls-13 {
        fill: #fc75a0;
      }

      .cls-14 {
        fill: #fd6f9d;
      }

      .cls-15 {
        fill: #021126;
      }

      .cls-16 {
        fill: #c8effd;
      }

      .cls-17 {
        fill: #1b3861;
      }

      .cls-18 {
        fill: #1a365e;
      }

      .cls-19 {
        fill: #6f171d;
      }

      .cls-20 {
        fill: #040f21;
      }

      .cls-21 {
        fill: #fc6f9b;
      }

      .cls-22 {
        fill: #fdebcd;
      }

      .cls-23 {
        fill: #01aef9;
      }

      .cls-24 {
        fill: #0b9bf2;
      }

      .cls-25 {
        fill: #0a1424;
      }

      .cls-26 {
        fill: #0077c3;
      }

      .cls-27 {
        fill: #fd6c98;
      }

      .cls-28 {
        fill: #fdebce;
      }

      .cls-29 {
        fill: #00a9f7;
      }

      .cls-30 {
        fill: #021329;
      }

      .cls-31 {
        fill: #021024;
      }

      .cls-32 {
        fill: #060f1f;
      }

      .cls-33 {
        fill: #089af3;
      }

      .cls-34 {
        fill: #fd605d;
      }
    </style>
  </defs>
  <g id="Layer_1-2" data-name="Layer 1">
    <g>
      <path class="cls-20" d="M277.4,139.29l-.63,2.83c2.44,6.07-3.87,5.76-4.45,1.12l-2.23-2.36c-.96-16.44-2.87-32.76-5.73-48.97-6.11-27.95-17.52-42.67-46.27-46.69-2.81,8.8-12.53,31.1-23.48,22.61l-21.31,12.84c-3.72,1.15-5.79,1.26-9.75,1.16-11.25-.29-32.74-1.25-20.81-16.07-4.39-1.01-9.04-1.91-13.95-2.69-9.53-2.56-15.56-5.74-16.49-16.11-26.87,3.53-35.75,26.84-41.05,50.13l-5.73,43.46-2.14.91c.24,2.91-3.3,3.59-4.54.98-.27-.94.02-1.84-.43-3.29-12.54,3.32-25.71,2.51-37.49-3.02-8.34-9.13-14.9-18.94-20.3-29.88-1.68-4.67.09-9.53,4.69-11.34l30.89-12.18c10.06-3.97,20.05.62,30.73,3.81-8.21-8.15-15.94-15.16-22.39-24.16-4.69-6.53.26-34.85,3.51-47.68,1.16-4.59,3.97-8.89,8.35-10.59,6.14-2.39,11.18,1.63,13.01,7.59,2.2,7.17,1.64,16.05,5.36,22.43,4.19,5.64,12.27,8,17.87,12.2,6.71-3.36,12.8-5.05,19.96-7.08l1.9-15.96c.31-2.6,3.21-3.74,5.52-2.49l12.37,6.69c.22-3.67.08-7.49,2.47-10.05,7.28-7.8,16.44-14.29,26.91-16.92,5.61-1.41,11.19.45,16.74.82,3.09.21,5.87,1.69,5.67,4.88l-.58,9.07c12.07,1.53,23.36,3.61,34.7,7.22,2.13.68,3.55,2.47,2.98,4.59l-2.87,10.68c9.99,2.12,19.11,4.29,28.23,9.66,6.21-4.28,14.97-5.54,19.51-11.63,6.3-8.45,1.85-27.63,15.08-28.94,4.83-.48,9.4,2.88,10.78,8.08,3.5,13.16,5.44,26.55,5.45,40.29,0,5.69-3.35,10.19-6.94,13.87l-18.11,18.57c12.38-4.63,24.06-7.03,35.86-2.06l25.3,10.67c5.11,2.15,6.28,7.62,3.58,12.51-6.2,10.28-13.02,19.78-21.58,28.68-12.12,4.64-25.74,5.41-38.16,1.81Z"/>
      <path class="cls-32" d="M58.23,167.09c1.77.23,3.48.64,5.14,1.21-1.24,27.23.6,44.13,27.69,58.16,10.8,4.52,21.69,8.6,32.68,12.23l5.75-.99c24.46,3.76,50.42,4.46,74.33.09l1.7,1.73c28.99-7.6,60.93-15.99,65.64-50.06l.24-19.04,2.01-1.38c.43-2.82,3.33-3.51,5.04-1.27l-.08,20.34c-2.86,37.78-39.93,53.06-74.51,57.62-41.12,5.43-97.55,3.83-130.37-22.28-10.62-8.44-15.97-20.43-17.37-33.81l.21-22.62c.22-2.67,1.18-2.49,1.9.05Z"/>
      <path class="cls-33" d="M58.23,167.09l-1.9-.05c-3.71-1.52-6.87-4.75-7.46-7.65-1.76-8.63,6.23-16.15,9.97-16.96l4.54-.98c.21-1.01.81-1.68,1.61-2.26,3.08-2.25,24.84,3.14,23.46,11.25-.52,3.04-12.62,14.41-15.77,16.21-5.2,2.98-9.85,3.01-14.45.44Z"/>
      <path class="cls-24" d="M278.45,167.77c-1.22.62-3.64,1.1-5.04,1.27-.23.84-.65,1.59-1.38,2.09-4.4,3.03-23.95-12.95-26.59-16.75-7.02-10.12,15.4-14.8,22.6-13.8,2.55-.24,3.97.65,4.28,2.65l4.43,1.77c-.43-2.93-.4-4.95.64-5.72-2.4,8.65,7.51,7.66,7.68,18.48.06,3.83-2.81,8.07-6.63,10.01Z"/>
      <path class="cls-1" d="M315.16,200.39l-20.49-6.09c-1.37-.41-2.07-1.34-2.01-2.5.06-1.25,1.01-2.52,2.81-2.16l20.58,4.1c2.15.43,3.26,1.54,3.42,3.13.21,2.16-1.28,4.42-4.3,3.52Z"/>
      <path class="cls-2" d="M242.13,27.15c-.76,1.22-1.6,1.86-2.16,2.03-.81.25-2.48-.18-3.38-1.41l11.26-22.38c1.25-2.48,6.64.57,6.23,2.52l-11.95,19.25Z"/>
      <path class="cls-10" d="M18.03,195.29c-2.53.69-4.18-.91-4.38-2.55-.17-1.43.57-3.38,2.64-3.75l20.38-3.62c1.51-.27,2.67.72,3.04,1.45.61,1.22-.1,2.58-1.67,3.01l-20.02,5.46Z"/>
      <path class="cls-27" d="M297.19,179.55c-2.28.38-3.6-.68-3.99-1.77-.4-1.15.08-2.91,1.78-3.27l18.87-3.95c1.86-.39,3.18.38,3.76,1.38.94,1.62.15,4.14-1.9,4.48l-18.53,3.12Z"/>
      <path class="cls-14" d="M37.33,171.01c1.74.52,2.76,1.74,2.45,2.75-.29.94-1.81,2.35-3.17,2.1l-19.08-3.52c-2.05-.38-1.88-3.1-1.45-4.23.61-1.6,2.34-2.74,4.48-2.1l16.78,5Z"/>
      <path class="cls-21" d="M27.56,214.71c-1.66,1.14-3.08-.74-3.48-1.59s-.91-3.2.41-3.99l15.08-8.97c1.2-.71,2.46-.71,3.17-.33.99.52,1.79,3.24.58,4.07l-15.76,10.81Z"/>
      <path class="cls-13" d="M302.35,219.07l-14.03-10.49c-1.24-.93-.95-2.64-.3-3.4.96-1.13,2.4-1.55,4.08-.44l13.85,9.18c1.52,1,1.91,2.65,1.52,3.71-.59,1.6-3.05,2.99-5.11,1.45Z"/>
      <path class="cls-7" d="M262.18,24.78c-3.1,3.8-13.36,10.59-14.89,9.43-.66-.5-.9-2.18.15-3.17l10.99-10.28c1.19-1.11,4.86,2.65,3.74,4.02Z"/>
      <path class="cls-17" d="M272.32,143.23c-14.75-3.32-30.56,5.15-25.47,9.73l8.47,7.63c5.2,4.68,11.22,9.27,18.09,8.45l-.16,18.18c-.21,16.77-10.65,30.45-24.79,38.9-11.49,6.87-23.71,10.75-36.91,13.25l-6.03.15,1.14-2.93c15.35-9.18,21.15-27.47,17.42-44.48l1.39-2.77c-1.06-3.21,1.52-3.39,7.72-.54,37.62,3.63,20.04-30.38-6.42-14.71-1.78,2.31-3.7,3.42-5.77,3.33l-2.87-.37c-15.85-17.42-48.65-18.22-70.85-15.47-13.32,1.65-27.23,4.33-35.28,15.68l-2.76.52c-1.89-.13-3.53-1.38-4.92-3.77-31.76-18.73-40.59,23.42-2.37,12.29l2.31,1.11,1.49,2.75c-3.27,17.23,1.24,35.99,16.9,45.58l1.09,2.95c-2.25-.44-4.53-.22-7.4-1-15.23-4.11-30.17-9.32-41.79-20.23-8.47-7.95-13.31-18.72-13.18-30.1l.21-18.89-3.34-1.37c6,.17,11.74.04,16.12-4.18l10.69-10.31c7.04-6.8-12.39-13.15-21.66-11.14l5.6-42.77c2.24-16.37,11.65-40.26,26.08-47.88,5.84-3.08,11.98-5.03,18.71-6.68,1.02,4.42,1.19,10.21,5.26,12.81,7.72,4.94,17.33,5.53,26.77,6.59-1.58,5.65-6.69,9.23-4.11,12.18.65.75,1.66,1.27,2.98,1.41,8.82,1.91,17.39,3.27,26.34,2.61l24.07-14.53c1.66,2.67,4.64,4.02,6.73,2.33,7.76-6.28,12.23-14.72,14.79-24.74l16.54,4.13c8.28,2.07,14.8,7.04,20.27,13.7,15.71,19.12,16.39,57.18,18.92,82.63Z"/>
      <path class="cls-18" d="M170.75,75.1c-8.77.72-16.55-.43-24.42-2.29l5.75-10.03c.58-1.02.21-2.38-.37-3.05-.82-.95-1.92-.93-3.5-.81-7.4.59-14.47-1.71-21.51-3.43-5.38-1.32-7.84-4.79-8.15-10.3-.36-6.34-1.24-12.36.42-19.37l12.38,6.81c1,.55,4.48,1.57,4.72.18l1.92-11.42c6.99-7.62,16.17-13.83,26.63-16.22,4.78-1.09,10.21,1.04,14.69,1.45-.57,5.02-1.41,8.21-.74,13.04,13.08,1.21,25.37,4.01,38.04,7.38l-4.94,17.15c-1.17,4.06-2.83,6.45-7.48,8.12,1.1.89,2.5,2.26,1.96,3.31-1.4,2.69-3.81,6.35-6.66,7.67-1.39-.84-2.9-3.24-4.4-3.16-1.82.1-3.41,1.38-4.61,2.99l-19.72,11.98Z"/>
      <path class="cls-22" d="M88.29,49.35c-9.96,8.18-15.68,18.83-19.79,31.43-7.75-7.02-14.92-14.18-20.57-22.99-.16-15.91,1.8-31.46,6.73-46.26.71-2.12,4-2.98,5.52-2.94,2,.06,3.78,2.27,4.37,4.82l5.63,24.26,18.11,11.69Z"/>
      <path class="cls-28" d="M269.35,82.85c-3.71-11.92-8.16-23.51-18.32-31.56,5.87-4.99,14.51-5.87,18.86-11.68,6.52-8.72,4.23-27.01,11.42-27.91,1.66-.21,4.86,1.16,5.49,3.58,3.43,13.27,5.83,26.88,5.35,40.78-.14,4.15-3.85,7.6-6.13,10.5-5.07,5.64-9.32,10.92-16.67,16.29Z"/>
      <path class="cls-11" d="M276.82,127.81c8.89,5.77,29.42,4.15,33.42-.92l12.79-16.21c.91-1.15,1.21-2.66.74-3.76-.66-1.52-15.01-5.16-23.16-5.73-3.18-.34-6.11.72-8.58,2.46l-17.3,12.97-2.8-22.79c11.56-6.24,24.74-7.89,36.83-2.76l22.47,9.53c1.16.49,2,1.61,2.2,2.39,1.08,4.23-14.22,24.08-22,31.11-10.5,2.84-29.46,3.95-33.93-.45-1.01-.99-1.77-3.56-.7-5.86Z"/>
      <path class="cls-8" d="M14.24,105.04c4.21,8.11,8.35,15.6,13.74,21.75,9.46,5.09,21.41,4.14,31.18,1.51,1,1.49.73,3.88-.01,4.87-2.54,3.39-24.27,4.83-33.63-.75-7.04-4.2-10.43-12.67-15.12-18.75-2.95-3.82-5-7.43-5.32-12.88,11.22-5.37,22.26-10.84,34.44-13.68,8.58-2,24.35,2.48,25.36,4.75.69,1.55-.26,2.88-1.75,4.25-.57,1.04.7,3.59.48,5.17l-1.88,13.24c-7.58-3.51-12.48-11.86-20.38-13.82-8.57-2.13-17.5,2.34-27.09,4.36Z"/>
      <path class="cls-23" d="M57.42,125.61c-8.01,3.04-18.45,3.72-26.15-.97-4.84-2.95-7.28-9.04-10.17-13.31.34-.88.77-1.91,1.62-2.22,11.83-4.32,28.53,4.83,35.68,14.2l-.98,2.3Z"/>
      <path class="cls-29" d="M278.43,125.49l-.27-2.27c5.66-4.41,11.6-8.37,17.82-11.88,7.68-1.41,15.43-2.22,23.25-2.42-3.3,6.33-7.02,10.92-11.49,15.42-4.86,4.9-20.1,6-29.31,1.13Z"/>
      <path class="cls-9" d="M319.23,108.93c-4.37,4.43-12.66,1.41-21.26,3.84-3.16.89-6.14,3.21-8.82,5.05l-10.72,7.66c-1.2-.63-4.91-2.68-2.78-4.19,7.07-5,13.94-12.47,22.29-15.38,6.67-2.33,14.87,2.27,21.3,3.01Z"/>
      <path class="cls-26" d="M57.42,125.61c-1.7-3.35-4.76-5.82-8.11-8.02l-7.76-5.1c-6.46-2.46-13.87-2.38-20.44-1.15-.64-.95-1.63-1.85-1.56-2.64.11-1.26,16.72-5.91,20.97-4.07,7.47,3.22,13.47,10.02,20.06,14.9,2.23,1.65-1.18,5.34-3.14,6.09Z"/>
      <path class="cls-28" d="M220.99,177.42c2,.24,2.62,1.91,1.86,4.98,2.85,2.49,3.72,4.8,2.61,6.94,5.14,19.49-1.43,40.52-19.95,50.17l-9.94,1.79c-24.3,2.36-48.41,1.97-71.84-2.62-18.79-10.2-23.89-30.94-19.49-51.27l.32-2.52c1.96-1.92,3.51-4.29,4.65-7.1,4.53-7.21,11.8-12.43,20.36-14.73,23.68-6.36,48.78-6.11,72.23.88,8.13,2.42,14.37,7.25,19.18,13.48Z"/>
      <path class="cls-16" d="M73.97,160c-4.54,4.3-10.23,5.56-15.72,3.64-4.47-1.56-7.09-6.22-4.79-10.74,5.6-11,20.87-11.68,31.39-3.21l-10.87,10.3Z"/>
      <path class="cls-4" d="M264.23,164.15l-14.18-10.3c-1.05-.77-1.68-1.98-1.62-3.05.17-2.98,14.13-8.13,23.9-4.3,5.52,2.16,10.49,7.39,8.1,13.65s-10.82,7.92-16.2,4.01Z"/>
      <path class="cls-12" d="M225.47,189.34l-4.47-6.39v-5.53c6.2-9.47,18.85-11.73,29.4-6.94,3.61,1.64,6.13,4.94,6.47,8.34.39,3.93-1.66,7.43-5.25,9.48-7.84,4.47-17.08,4.2-25.15.08-.63-.32-1.27.39-1,.96Z"/>
      <path class="cls-3" d="M109.22,177.79c1.65,4.19-1.47,7.81-4.98,9.62-13.95,7.21-29.87.87-30-8.63-.04-2.65,1.36-5.38,3.61-7.3,8.8-7.53,26.85-5.14,31.37,6.31Z"/>
      <path class="cls-30" d="M128.34,152.31c-4.12-6.07-8.9-9.95-15.29-10.23-14.53-.63-16.24,12.61-20.37,8.72-3.07-2.9,4.17-17.1,18.48-17.73,12.78-.57,21.46,11.79,21.09,17.3-.06.93-3.12,3.09-3.9,1.95Z"/>
      <path class="cls-31" d="M239.22,151.36c-3.81,4.96-5.54-7.82-20.07-8.44-13.61-.58-15.85,12.37-19.57,8.95-2.66-2.44,2.85-12.73,11.89-16.58,6.58-2.8,13.53-1.96,19.3,1.83,3.85,2.53,10.07,12.13,8.45,14.24Z"/>
      <path class="cls-6" d="M119.55,107.1c-15.35-4.82-19.59,8.65-22.86,5.69-.77-.7-1.31-2.19-.09-3.64,8.73-10.41,24.7-9.69,25.65-4.25.16.93-1.23,2.66-2.7,2.2Z"/>
      <path class="cls-15" d="M231.88,113.01c-8.23-9.99-20.48-3.31-20.99-7.35-.57-4.51,15.07-7.01,24.77,4.57,1.05,1.25.63,2.98-.14,3.47-1.38.88-2.57.6-3.64-.7Z"/>
      <path class="cls-19" d="M185.39,223.64l-2.6-.43c-8.24-12.18-27.97-11.86-35.65.72l-2.54.5c-7.65-9.74-9.7-25.28-4.91-27.58,4.21-2.02,20.3,8.01,46.01.28,8.83-2.66,8.44,14.75-.32,26.52Z"/>
      <path class="cls-34" d="M185.39,223.64c-9.71,13.04-30.75,13.55-40.78.79,3.32-6.77,9.59-10.91,17.2-11.87,9.78-1.23,18.89,2.61,23.58,11.08Z"/>
      <path class="cls-5" d="M201.96,178.72c1.79,5.55-6.53,13.48-11.86,9.91-4.2-2.81.43-9.96,3.95-11.79,2.84-1.48,6.52-2.42,7.91,1.88Z"/>
      <path class="cls-25" d="M140.22,188.44c-6.09,2.41-11.84-2.37-12.8-8.1-.18-2.96,1.56-4.69,4.38-4.89,5.94.75,10.72,6.51,8.42,12.99Z"/>
    </g>
  </g>
</svg>