<?xml version="1.0" encoding="UTF-8"?>
<svg id="Layer_2" data-name="Layer 2" xmlns="http://www.w3.org/2000/svg" viewBox="0 0 321.14 280.61">
  <defs>
    <style>
      .cls-1 {
        fill: #a86ce7;
      }

      .cls-2 {
        fill: #020f21;
      }

      .cls-3 {
        fill: #9a59e2;
      }

      .cls-4 {
        fill: #1a375f;
      }

      .cls-5 {
        fill: #fdebcf;
      }

      .cls-6 {
        fill: #a161e7;
      }

      .cls-7 {
        fill: #19355d;
      }

      .cls-8 {
        fill: #040f22;
      }

      .cls-9 {
        fill: #b681f2;
      }

      .cls-10 {
        fill: #9f5ee6;
      }

      .cls-11 {
        fill: #1b3861;
      }

      .cls-12 {
        fill: #17345c;
      }

      .cls-13 {
        fill: #020e1f;
      }

      .cls-14 {
        fill: #b37deb;
      }

      .cls-15 {
        fill: #091627;
      }

      .cls-16 {
        fill: #0078c0;
      }

      .cls-17 {
        fill: #9d5ee4;
      }

      .cls-18 {
        fill: #9e5fe7;
      }

      .cls-19 {
        fill: #a564e7;
      }

      .cls-20 {
        fill: #fcecd0;
      }

      .cls-21 {
        fill: #021025;
      }

      .cls-22 {
        fill: #0c1624;
      }

      .cls-23 {
        fill: #00abf6;
      }

      .cls-24 {
        fill: #f4f4f4;
      }

      .cls-25 {
        fill: #01adf6;
      }

      .cls-26 {
        fill: #f5f5f5;
      }

      .cls-27 {
        fill: #021024;
      }

      .cls-28 {
        fill: #091425;
      }

      .cls-29 {
        fill: #0076c0;
      }
    </style>
  </defs>
  <g id="Layer_1-2" data-name="Layer 1">
    <g>
      <path class="cls-8" d="M246.64,74.87c2.76-2.66,5.9,2.32,2.82,4.58-2.88.12-5.91,2.71-8.13,4.14,8.85,8.69,13.48,19.06,17.05,31,9.8-9.72,18.01-16.17,14.22-28.97,1.85-.3,2.99-.81,4.8-1.67,4.94,16.46-5.96,24.55-17.48,36.4,8.27-1.5,15.38-4.52,23.39-3.16,11.52,1.96,21.73,7.18,32.28,11.67,4.5,1.92,6.62,5.94,5.02,10.74-5.7,11.44-12.68,22-21.97,30.88-10.51,3.95-21.39,4.91-32.1,2.28l1.6,36.4c.8,18.18-4.56,36.75-18.74,48.17-19.55,15.75-47.74,21.49-73.09,22.81-32.38,1.69-70.98-.75-98.61-17.4-9.07-5.47-16.94-12.9-21.13-22.69-2.98-6.97-5.73-14.23-5.27-21.85l2.73-45.19c-10.94,3.21-22.54,2.09-33.11-2.3-7.72-8.99-14.38-18.02-19.75-28.42-2.29-4.3-1.28-9.73,3.28-12.06,10.98-5.61,22.34-10.95,34.6-13.27,8.07-1.52,15.26,1.9,23.77,3.44l-16.15-18.61c-3.27-3.77-4.47-8.51-4.05-13.67l1.72-18.98c3.73-2.74,6.97,1.07,4.15,5.19l1.97,1.41c-3.54,14.67,1.15,25.2,12.87,33.56,3.09-10.03,9.13-18.64,15.53-26.42-9.63-3.74-15.27-10.1-16.91-19.08l-3.54-3.78c-3.21,2.36-6.61-4.2-2.35-4.77,5.41-1.76,10.67.86,12.44,6.76l2.49,8.32,16.22,9.66c6.65-3.86,13.42-5.92,20.7-7.91-.27-10.67,1.12-21.42,6.74-18.38l12.61,6.82c-.29-5.24.82-9.76,4.49-12.97,14.34-12.55,25.41-19.16,44.33-12.4,2.51,3.36.64,8.61.43,12.48,12.81,1.49,24.99,3.92,36.72,8.32.96,5.33-.69,9.47-2.38,14.6,9.28,2.04,17.93,4.89,26.01,9.39l9.75-5.1Z"/>
      <path class="cls-17" d="M34.95,38.98c.79-6.19,14.66-13.66,7.47-21.95-2.48-2.86-6.54-2.91-9.59-1.81-11.43,4.1.02,14.63-10.65,18.3-3.26,1.12-7.42-.51-9.23-5.19s-.49-10.08,1.9-14.83C19,5.26,28.08.92,37.21.1c7.62-.69,14.16,2.23,18.31,7.61,8.19,10.62,3.34,22.19-6.3,32.34l2.28,9.05c-3.56,1.92-7.04,3.27-11.1,3.95-3.43-3.31-6.14-8.63-5.45-14.07Z"/>
      <path class="cls-18" d="M254.43,65.81c-1.06-3.84,1.85-10.97,6.78-10.79s9.97-.24,10.68-6.07c.39-3.22-2.73-5.27-5.2-5.71-6.7-1.18-7.05,9.15-12.61,4.35-1.84-1.59-2.82-4.32-1.31-6.87,2.48-4.17,6.56-6.33,11.57-6.22,6.12.14,12.43,2.67,15.37,8.31,2.39,4.59,1.29,10.11-1.37,13.81-5.86,8.15-14.15,2.86-16.57,11.07-2.53,0-4.17-.51-7.33-1.88Z"/>
      <path class="cls-10" d="M29.37,226.59c-1.95-1.24-2.57,3.59-3.68,4.61-.51.47-2.59.23-2.99-.49-1.51-2.71-.5-5.96,1.6-8.05,1.95-1.94,6.31-2.58,8.78-.17,3.37,3.29,4.41,9,3.14,13.64-.91,3.33-3.8,8.42-8.48,9.34-11.03,2.16-19.98-7.44-19.53-18.23.32-7.6,3.45-14.18,8.9-17.99,10.19-7.14,22.92-3.25,22.16.37-.97,4.6-13.82-5.1-22.93,8.17-4.08,5.95-3.98,15.32,1.59,20.5,3.28,3.05,8.06,3.28,10.94,1.01,4.44-3.51,3.54-10.79.51-12.71Z"/>
      <path class="cls-6" d="M286.15,245.89c.88,1.84-.56,3.45-1.66,3.91-1.62.69-2.57-.56-3.58-2.23-1.25-2.06-3.96-1.55-5.35-.64-1.9,1.24-2.71,3.55-2.2,6.27.67,3.58,3.96,5.78,6.51,6.2,3.9.63,7.04-.46,9.81-2.83,4.21-3.6,5.86-8.95,4.83-13.93-2.2-10.63-12.94-9.22-13.62-12.02-.27-1.13.65-3.02,2.4-2.88,10.72.84,17.59,10.02,16.47,20.48-.67,6.23-3.92,11.17-8.43,13.88-5.34,3.21-12,3.45-17.03.17s-7.38-9.16-5.49-14.36c1.39-3.82,4.2-6.09,7.19-6.65,4.03-.75,8.11.39,10.14,4.63Z"/>
      <path class="cls-3" d="M56.08,55.29c-1.01,1.67,1.07,3.66,2.35,4.77,7.15,5.34-3.89,13.07-9.93,14.32.24-1.22-.09-3.11-1.08-3.62l-3.08-1.57c-2.42-2.67-2.79-6.68-1.22-9.72,3.61-6.98,11.38-3.67,12.94-4.18Z"/>
      <path class="cls-19" d="M249.46,79.46c-.33-2.03-1.15-3.84-2.82-4.58,1.09-1.37,1.75-3.52,3.42-4.78,3.02-2.27,7.03-1.82,9.11,1.55,1.34,2.17.79,5.35-1.37,7.49-2.46,2.44-5.63.21-8.35.32Z"/>
      <path class="cls-1" d="M44.84,236.14c-1.12,1.3-2.66.61-3.15.11s-1.69-1.99-1.13-3.04l5.46-10.24c2.27,4.3,1.95,9.55-1.17,13.16Z"/>
      <path class="cls-9" d="M287.55,69.8c1.85-1.25,4.26-.28,5.14,1.4.81,1.53.57,3.82-1.64,5.14-1.32.79-2.92.82-4.39-1.02-1.03-1.29-1.7-3.78.89-5.52Z"/>
      <path class="cls-14" d="M289.54,216.38c1.35-.84,2.96-.51,3.93,1.05.58.92.72,1.94-.58,2.89-1.11.81-2.44.91-3.53.27-1.6-.94-1.78-2.99.18-4.21Z"/>
      <path class="cls-11" d="M198.53,271.71l.98-3.01c23.48-13.37,22.9-56.14-3.85-64.89-29.14-9.53-86.26-11.51-90.36,28.77-1.62,15.92,2.86,28.75,17.34,36.74l1.1,2.84c-17.3-1.35-33.72-6.99-48.39-17.21-11.51-8.02-18.61-21.54-18.69-36.1-.15-27.7,2.8-54.86,6.82-82.34,2.52-17.26,10.11-42.3,23.97-51.12,6.64-4.22,13.97-6.82,21.57-8.55.52,17.36,15.28,17.85,31.55,19.84l-4.2,7.58c-.75,1.35-1.08,2.79-.49,3.87,1.52,2.82,20.56,6.21,28.07,4.27,9.08-2.34,15.76-9.41,24.18-13.57.85,1.09,3.79,3.55,5.03,2.62,8.79-6.61,14.03-15.58,15.98-26.61,8.14,2.32,15.65,4.14,22.7,7.93,19.47,10.46,24.91,40.89,26.99,62.86,2.28,24.02,4.48,47.31,3.84,71.52-.34,12.93-5.26,25.18-14.16,34.17-5.77,5.82-12.83,9.51-20.23,12.83l-24.35,7.69c-1.72.54-3.38.09-5.4-.13Z"/>
      <path class="cls-5" d="M198.53,271.71c-24.22,4.79-50.32,4.66-74.79.45-13.48-6.71-21.17-18.27-20.67-33.02-.4-23.64,11.13-35.67,33.81-40.36,19.06-3.94,37.93-3.28,56.55,2.17,15.12,4.42,24.83,17.34,24.69,33.2,1.63,15.76-5.57,29.02-19.59,37.56Z"/>
      <path class="cls-4" d="M162.58,101.6c1.52,2.4,2.83,2.67,4.81,3.82-1.2,2.16-3.35,3.29-6.07,3.13-11.41-.65-16.22.62-18.08-6.17-.72-2.65,6.16-8.66,2.24-9.37-9.18-1.68-21.12-1-29.01-7.12-5.25-7.06-3.61-18.76-2.82-26.81l14.92,7.16c2.25,1.08,3.63-3.06,3.41-4.97-.66-5.77,1.56-9.52,5.81-12.64,12.38-9.08,17.88-13.53,34.64-9.81l-.76,13.12c12.54,1.89,24.5,3.57,36.79,7.55.03,3.39-1.7,5.95-2.56,9.44-.97,3.92-1.26,9.91-3.85,12.99-.86.55-3.7-.09-4.48,1.32-.71,1.29.42,2.99,1.25,4.57-.08,3.03-3.81,6.99-6.63,8.43-1.11-.34-3.06-3.63-4.62-2.62l-13.39,8.67c-1.75-1.06-2.55-2.71-3.77-4.3l-7.85,3.63Z"/>
      <path class="cls-12" d="M265.77,160.18c9.09,4.89,18.99,3.88,27.89.37,5.39-6.47,10.15-12.6,14.47-20.75l-16.94-4.46c-3.31-.87-8.1-1.2-10.81.84l-16.41,12.34-3.11-23.1,12.04-2.77c4.48-1.03,8.78-1.79,13.22-.06l27.92,10.85c1.84.72,3.12,3.18,1.73,5.27-6.07,9.16-11,19.99-19.99,26.99-5.98,4.65-26.41,5.59-29.47.83-1.14-1.77-1.58-4.85-.53-6.35Z"/>
      <path class="cls-7" d="M24.73,157.66c2.15,3.23,4.18,4.4,7.99,5.23,7.75,1.7,15.14,1.76,22.18-2.2.84,2.48.54,4.82-.31,6.15-2.53,3.98-23.48,4.86-30.77-1.17-8.35-6.91-12.67-17.77-18.64-26.46-1.89-2.75,1.56-5.05,3.34-5.78,18.95-7.74,29.91-16.45,52.46-8.64l-3.96,22.89-13.68-10.56c-2.93-2.26-6.23-3.61-9.98-2.68l-19.47,4.83c2.02,7.27,6.9,12.46,10.83,18.37Z"/>
      <path class="cls-20" d="M48.51,74.38c-.04-5.2,11.97-2.52,9.93-14.32,8.27-.92,4.98,11.06,10.53,14.45l13.99,8.55c-10.09,7.96-14.85,18.3-18.98,30.59-5.26-6.11-12.64-11.59-15.54-19.37-2.36-6.32.12-13.83.08-19.9Z"/>
      <path class="cls-25" d="M54.12,158.44c-8.13,4.97-20.62,3.18-24.29.17-4.43-3.63-6.94-8.78-10.03-13.41.06-.76.21-1.61.83-1.93,11.18-5.75,25.53,5.45,33.54,12.71l-.05,2.46Z"/>
      <path class="cls-23" d="M301.35,145.2c-3.24,4.37-6.05,9.67-10.85,13.17-4.55,3.31-17.81,4.61-23.27-.29-.38-.68-.87-1.79-.46-2.14,9.53-8.12,20.25-16.39,33.36-12.77.88.24,1.21,1.1,1.22,2.04Z"/>
      <path class="cls-16" d="M54.12,158.44l-16.58-12.38c-4.91-3.48-12.18-1.8-17.74-.86-.39-.58-1.95-1.76-1.37-3.26,5.9-1.09,13.14-4.62,19.25-2.83,6.1,1.79,10.21,7.98,15.49,11.07,2.08,1.22,3.21,2.31,3.09,4.45-.09,1.59-.49,2.8-2.14,3.81Z"/>
      <path class="cls-29" d="M301.35,145.2c-4.19-1.46-15.38-.74-17.43.74l-16.7,12.13c-2.38.09-2.87-1.7-2.69-3.32s.99-2.6,2.81-3.69c5.83-3.48,10.58-10.29,17.37-11.99,5.95-1.49,12.66,2.25,18.32,2.91-.05,2.01-1.03,2.35-1.67,3.21Z"/>
      <path class="cls-13" d="M225.13,194.4c-2.41,4.92-6.66,7.6-10.92,8.24-4.86.73-10.09-.87-13.72-4.84-6.96-7.63-7.32-20.19-1.26-28.47,2.71-3.7,6.92-6.04,10.61-6.36,4.64-.4,9.11,1.8,12.3,5.51,5.97,6.94,7.18,17.34,2.98,25.92Z"/>
      <path class="cls-2" d="M124.31,190.64c-1.7,6.22-6.56,10.19-11,11.47-6.59,1.89-12.89.16-16.78-5.26-5.76-8.01-5.07-19.66.93-27.33,2.95-3.77,7.25-5.88,11.36-5.8s8.73,1.83,11.59,5.43c4.63,5.81,5.96,13.98,3.9,21.5Z"/>
      <path class="cls-21" d="M224.29,153.22c-24.1,3.66-34.86-13.27-26.7-12.66,1.25.09,8.98,10.5,25.32,7.1,2-.42,3.66-.31,4.16,1.26.74,2.3-.37,3.92-2.78,4.29Z"/>
      <path class="cls-27" d="M116.5,137.42c-7.13-2.63-15.27.6-19.54,6.28-.96,1.28-1.9,1.88-3.02,1.54-.78-.23-2.09-1.83-1.46-2.97,8.78-16.03,30.85-11.32,28.27-6.09-.82,1.66-2.04,2.06-4.25,1.24Z"/>
      <path class="cls-22" d="M181.71,251.05l-15.1,6.43c-1.39.59-2.5,1.79-3.45,1.15-1.5-1.02-1.59-3.94.11-4.7l17.79-8.02,1.38-3.21c.31-.73,2.58-1.12,3.21.24,2.82,6.01,6.53,6.15,5.09,8.27-2,2.94-4.03-2.27-9.02-.15Z"/>
      <path class="cls-15" d="M195.44,218.73c-1.4,5.76-6.2,10.12-11.89,8.09-2.53-5.41,1.24-11.84,6.86-13.34,1.52-.19,2.72.08,3.46.66,1.07.84,1.81,2.26,1.57,4.59Z"/>
      <path class="cls-28" d="M138.28,225.97c-2.29,3.26-7.45.55-9.5-1.7s-4.05-6.86-.98-9.56c2.44-2.14,6.63-.05,8.36,1.97,1.56,1.83,4.41,6.02,2.12,9.29Z"/>
      <path class="cls-26" d="M208.72,184.18c-4.63,1.22-7.8-1.87-8.27-5.54-.45-3.46,1.69-7.66,6.03-8.13,3.5-.38,6.06,2.83,6.76,5.46.84,3.17-.59,7.17-4.52,8.21Z"/>
      <path class="cls-24" d="M109.75,184.23c-4.88,1.54-8.33-1.64-8.89-5.48s1.61-8.31,6.49-8.44c3.55-.09,5.97,2.91,6.56,5.71.64,3.03-.31,7-4.15,8.21Z"/>
    </g>
  </g>
</svg>