<?xml version="1.0" encoding="UTF-8"?>
<svg id="Layer_2" data-name="Layer 2" xmlns="http://www.w3.org/2000/svg" viewBox="0 0 318.58 294.97">
  <defs>
    <style>
      .cls-1 {
        fill: #fdc222;
      }

      .cls-2 {
        fill: #1a375f;
      }

      .cls-3 {
        fill: #040e20;
      }

      .cls-4 {
        fill: #0e141e;
      }

      .cls-5 {
        fill: #18355d;
      }

      .cls-6 {
        fill: #021127;
      }

      .cls-7 {
        fill: #1b3861;
      }

      .cls-8 {
        fill: #010e20;
      }

      .cls-9 {
        fill: #fdb61d;
      }

      .cls-10 {
        fill: #fdc931;
      }

      .cls-11 {
        fill: #00adf7;
      }

      .cls-12 {
        fill: #f2f2f2;
      }

      .cls-13 {
        fill: #fdebcd;
      }

      .cls-14 {
        fill: #fdb218;
      }

      .cls-15 {
        fill: #091222;
      }

      .cls-16 {
        fill: #fcb920;
      }

      .cls-17 {
        fill: #fdebce;
      }

      .cls-18 {
        fill: #0077c5;
      }

      .cls-19 {
        fill: #193660;
      }

      .cls-20 {
        fill: #007bc6;
      }

      .cls-21 {
        fill: #fdb71e;
      }

      .cls-22 {
        fill: #01b0f8;
      }

      .cls-23 {
        fill: #0b1629;
      }

      .cls-24 {
        fill: #fdc628;
      }

      .cls-25 {
        fill: #020f22;
      }
    </style>
  </defs>
  <g id="Layer_1-2" data-name="Layer 1">
    <g>
      <path class="cls-3" d="M163.22,53.7c3.49.32,9.58-.42,11.87,2.44s.02,7.96.1,11.77c12.54,1.77,24.32,4.08,35.81,8.38.54,5.73-1.76,9.91-3.17,14.69,8.33,1.63,15,3.64,22.29,7.94,5.06-3.77,12.94-5.62,16.6-11.22,5.62-8.58,1.85-29.1,13.64-30.39,3.91-.43,9.3,1.6,10.71,6.17,4.09,13.2,9.78,46.23,5.11,51.74l-20.74,24.43c7.34-1.28,13.91-4.78,21.19-3.65,12.68,1.96,24.7,6.92,35.84,12.89,3.32,1.78,2.87,6.58,2.22,9.81-5.64,10.76-12.04,20.75-20.61,29.42-10.38,4.14-21.38,4.82-32.61,2.2l1.5,42.39c-.51,16.64-7.21,31.8-20.66,41.67-10.76,7.9-22.89,12.97-36.29,15.8-28.3,5.97-57.36,6.39-85.79,1.16-13.5-2.48-25.66-7.1-37.28-13.86-18.74-10.91-26.46-30.06-25.11-51.71l2.18-34.81c-11.09,2.91-22.13,2.06-32.08-2.19-7.43-7.56-12.28-15.64-17.58-24.87-2.66-2.8-5.06-10.69-.79-13.35,11.22-7.02,24.11-12.23,37.19-14.63,7.55-1.38,14.11,2.83,21.52,3.34-7.66-8.48-15.08-15.4-20.39-24.57-4.19-7.23,1.1-37.64,5.2-50.49,1.27-3.99,5.09-6.42,8.23-6.81,3.88-.49,8.58,1.12,9.54,5.29l5.87,25.73,16.89,10.72c5.24-3.21,10.57-4.44,16.09-6.25-.09-8.76-.4-18.77,3.6-19.26,1.23-.15,2.24.33,3.47,1.05l10.85,6.34c.16-3.53-.34-7.09,1.82-9.6,6.69-7.77,15.17-14.13,24.8-17.57-.35-3.78,8.72-3.54,9.01-.14Z"/>
      <polygon class="cls-14" points="67.7 286.92 10.17 254.48 28.81 242.39 1.72 198.23 52.89 244.09 38.3 254.23 67.7 286.92"/>
      <polygon class="cls-21" points="252.28 288.24 281.18 254.48 267.16 244.57 318.58 198.24 290.44 243.15 309.33 254.82 252.28 288.24"/>
      <path class="cls-10" d="M163.22,53.7c-3.07-.28-6.2-.86-9.01.14.26-8.33-5.31-15.13-13.52-17.26l-12.03-3.12,18.5-6.29c4.19-1.42,6-6.53,7.15-10.83l4.35-16.35,4.44,18.33c2.54,10.48,13.25,12.5,24.68,14.62-14.28,3.98-23.59,5.04-24.56,20.75Z"/>
      <path class="cls-24" d="M287.92,60.44c-2.33-3.04-1.94-6.2-2.86-9.13-2.12-6.7-7.96-8.56-15.27-10.48,5.1-2,9.58-1.54,12.68-5.34,3.28-4.03,3.67-9.01,4.99-14.42,5.33,10.21,2.39,17.62,17.35,19.39-5.27,2.64-9.59,2.73-12.29,7.09-2.36,3.81-3.13,8.12-4.59,12.9Z"/>
      <path class="cls-9" d="M28.29,105.73c-6.09-7.82-11.29-15.81-19.81-21.7-.64-.44-1.23-2.36-.75-2.75s1.89-.61,3.73-.76L0,56.16l21.81,26.42c-.89,2.05-1.24,3.92-.62,5.68l7.1,17.47Z"/>
      <path class="cls-1" d="M301.92,122.91l1.77-10.14c-.67-4.64-4.86-5.44-9.55-5.49l7.87-6.24,8.06-11.88c-1.61,8.76-.19,15.75,8.19,18.16-7.13,4.36-10.66,9.74-16.33,15.58Z"/>
      <path class="cls-16" d="M20.66,123.58C14.51,118.95.26,105.71.01,103.17c-.07-.73,1.78-2.3,2.59-1.58,3.8,3.4,7.85,6.42,10.59,10.6l7.47,11.39Z"/>
      <path class="cls-7" d="M192.88,287.11l.95-2.85c24.71-14.31,23.44-56.88-6.54-64.24-27.18-6.68-76.36-9.49-80.96,26.81-1.83,14.46,2.74,28.55,15.31,36.5l.18,2.7c-2.49,1.13-4.79-.37-7.5-1.11-26.22-7.14-49.2-18.96-51.1-48.22-1.19-18.32.63-35.75,2.62-53.82l2.45-22.28c1.5-13.58,4.97-26.25,10.78-38.48,6.19-13.04,17.16-21.94,31.47-24.32.67,4.29,1.32,9.63,5,12,7.4,4.75,16.29,5.91,25.01,6.3l-3.9,7.63c-.57,1.12-.69,2.23-.33,3,1.66,3.45,19.88,6.27,27.6,4.04,8.43-2.44,14.96-8.61,22.14-12.95,7.06,8.71,16.56-9.13,20.32-21.56.92-1.22,4.72-.04,5.85.91,14.48,2.55,25.18,11.55,31.44,24.71,4.31,10.17,7.59,20.6,9.02,31.93,3.26,25.78,5.37,50.87,5.26,76.89-.06,15.25-6.22,29.96-18.13,39.14-13.58,10.46-29.97,15.29-46.98,17.3Z"/>
      <path class="cls-17" d="M192.88,287.11c-23.38,3.36-47.99,3.27-71.05-1.08-5.98-4.8-11.32-8.55-14.16-15.33-8.07-19.19-3.12-44.93,17.54-51.56,20.92-6.71,43.44-6.61,64.53-.52,19.78,5.71,25.74,24.4,22.07,44.08-1.99,11.14-8.77,18.85-18.93,24.41Z"/>
      <path class="cls-2" d="M169.63,116.8c-2.67,1.11-5.14,1.61-7.24,3.55l5.7,3.49c-6.11,6-16.28,3.05-26.73.9l5.47-12.22c-9.72-.89-21.22-1.18-29.24-6.67-4.73-7.29-3.76-18.47-2.55-26.54,6.08,2.99,10.05,7.2,16.05,7.22l1.84-12.61c7.1-6.25,14.6-13.24,23.99-15.5,4.73-1.14,10.13.9,14.49.97-.56,4.92-1.68,8.71-.41,12.86,12.22,1.79,23.64,3.46,35.36,7.21l-7.42,25.39c-.87,2.98-3.51,1.64-5.65,1.33-3.35-.48-5.33,4.37-4.57,7.45-1.49-.55-2.92-1.02-4.19-.19l-12.4,8.08c-.87-1.06-1.4-2.23-2.51-4.71Z"/>
      <path class="cls-13" d="M253.51,134.21c-4.06-12.47-9.2-23.7-18.89-32.03,5.53-4.34,13.1-6.08,16.64-11.88,5.72-9.37,2.58-27.44,10.17-28.26,2.29-.25,3.82,1.23,5.69,3.78,2.62,14.44,7.15,29.62,5.09,44.81-3.08,9.1-12.05,15.87-18.69,23.59Z"/>
      <path class="cls-13" d="M80.83,110.3c-6.11,6.36-8.23,14.34-11.3,22.89-6.2-6.54-12.28-12.77-16.87-20.39-3.53-5.88,1.14-35.42,5.02-47.01.69-2.07,3.11-3.47,4.65-3.62,7.25-.72,5.16,17.89,10.2,28.03,3.12,5.58,11.22,7.5,16.12,11.95l-7.83,8.15Z"/>
      <path class="cls-5" d="M261.04,178.43c7.64,5.18,25.77,3.5,29.48-1.95l12.27-18.04-20.36-5.51c-3.79-1.03-7.56,1.73-10.29,4.15l-13,10.15-3.51-22.59c21.26-8.12,32.43-1.52,51.44,6.73,1.16.5,2.59.84,3.04,1.51,2.54,3.82-12.03,25.43-20.02,31.2-6.45,4.66-26.78,4.04-28.89.42-.79-1.35-1.07-3.78-.17-6.07Z"/>
      <path class="cls-19" d="M33.11,178.99c8.89,3.86,18.1,4.3,27.21.85,4.03,9.88-15.38,9.54-29.39,5.56-6.53-7.85-20.27-26.59-18.56-30.58.7-1.63,2.27-2.48,4.25-3.18l30.19-10.72c6.65-.97,13.39,1.2,19.64,3.29l-3.85,22.85-13.28-10.93c-6.58-5.42-18.68-.98-28.87,2.64l12.66,20.22Z"/>
      <path class="cls-22" d="M57.54,178.22c-6.42,2.08-14.25,2.63-20.5-.92-5.11-2.9-7.67-9-10.74-13.57,3.11-3.63,13.01-2.6,17.52-1.15,1.52.49,16.65,11.87,16.46,12.91l-2.73,2.73Z"/>
      <path class="cls-11" d="M295.82,164.1c-3.07,4.01-5.4,9.15-9.71,11.94-6.92,4.47-15.95,3.97-23.07.7l-1.67-2.11c.11-.92,12.99-9.82,14.93-10.92,3.04-1.73,5.01-2.49,8.54-2.86,3.16-.33,10.8-.47,10.98,3.25Z"/>
      <path class="cls-18" d="M57.54,178.22c.57-.82,1.05-1.42,1.25-2.29l-15.71-11.52c-5.61-1.34-11.07-1-16.79-.67-.5-.74-1.84-1.5-1.37-2.47.15-.31,13.67-4.85,19.41-3.27,6.41,3.45,12.32,8.97,17.38,13.84,2.44,2.35-2.24,5.76-4.17,6.39Z"/>
      <path class="cls-20" d="M295.82,164.1c-5.67-1.63-13.33-2.33-18.4,1.27l-13,9.22c-.6.42-1.6.48-1.41,1.13l.03,1.03c-1.38-.63-4.92-2.86-2.97-4.48,6.18-5.15,12.08-11.12,19.12-15.04,5.78-1.02,12.38,2.01,18.27,3.05.99,1-.98,2.97-1.63,3.83Z"/>
      <path class="cls-8" d="M195.01,213.81c-4.6-5.47-4.31-12.2-3.68-18.75.08-.89-1.66-2.78-1.32-3.59.37-.87,1.67-2.32,3.07-2.36,6.5-.19,11.72-3.8,17.83-4.99l15.16-2.97c1.41-.28,2.66.93,3.01,1.72.4.9.77,3.12-.74,3.48l-9.6,2.36c3.6,7.71,4.46,16.2.71,23.66-2.34,4.65-6.99,7.27-11.25,7.75-5.37.61-9.46-1.87-13.19-6.31Z"/>
      <path class="cls-25" d="M124.22,195.23c1.78,12.82-3.81,24.75-15.07,24.92-4.99.08-10.51-2.82-12.95-7.91-3.5-7.28-2.64-15.66.47-23.47-2.94-.68-6.05-.76-8.3-2.69-1.11-.95-.54-2.37.09-3.06.94-1.02,2.01-1.31,3.73-.9l30.83,7.25c1.38.33,2.26,1.13,2.83,1.92.98,1.35-1.32,2.96-1.63,3.93Z"/>
      <path class="cls-6" d="M126.34,180.51c1.93.92,3.82,1.14,4,2.87.13,1.26-1.69,4.03-3.69,3.39-11.09-3.58-20-10.62-28.61-18.32-1.42-1.27-2.79-2.18-1.89-3.83.68-1.26,2.59-2.49,4.13-1.44,8.59,5.91,16.2,12.64,26.07,17.33Z"/>
      <path class="cls-6" d="M207.11,177.15c-5.27,4.36-11.89,7.28-18.32,9.13-1.61.46-3.35-2.17-3.41-3.33-.07-1.45,2.42-2.14,3.92-2.78,15.02-6.45,26.59-20.41,30-16.5,1.24,1.41.38,3.1-1.24,4.44l-10.95,9.05Z"/>
      <path class="cls-4" d="M181.2,259.09c-15.65,21.47-44.45,7.11-38.49,2.9,1.24-.87,2.73-.51,4.31.53,9.38,6.19,22.29,3.52,29.37-5.03,1.03-1.25,2.22-1.54,3.29-1.23.78.22,2.37,1.66,1.52,2.82Z"/>
      <path class="cls-15" d="M137.49,241.91c-1.87,4.53-7.72,1.22-9.5-1.21-1.57-2.16-2.45-3.32-2.47-5.52-.02-1.76.6-4.11,3.57-4.49,4.66-.59,10.54,6.02,8.39,11.22Z"/>
      <path class="cls-23" d="M191.51,234.21c.14,3.69-1.51,5.86-3.4,7.6-1.5,1.38-5.8,3.35-7.57.95-3.13-4.24,1.31-10.98,6.02-12.12,2.69-.65,4.85.94,4.95,3.57Z"/>
      <path class="cls-12" d="M207.76,196.43c.52,4.22-2.14,7.26-5.55,7.59s-6.42-2.11-6.6-5.72,2.41-5.78,6.35-6.47c3.05-.53,5.33.72,5.81,4.6Z"/>
      <path class="cls-12" d="M110.78,192.7c2.04,3.05,1.1,6.7-.6,8.84-1.48,1.86-4.8,2.73-7.54,1.28s-3.51-3.91-3.34-6.61c.12-1.95,1.03-5.15,3.87-5.88,1.94-.5,6.38.52,7.61,2.36Z"/>
    </g>
  </g>
</svg>